<?xml version="1.0" encoding="utf-8" standalone="no"?>
<!DOCTYPE svg PUBLIC "-//W3C//DTD SVG 1.1//EN"
  "http://www.w3.org/Graphics/SVG/1.1/DTD/svg11.dtd">
<svg xmlns:xlink="http://www.w3.org/1999/xlink" width="1000.934062pt" height="280.047563pt" viewBox="0 0 1000.934062 280.047563" xmlns="http://www.w3.org/2000/svg" version="1.1">
 <metadata>
  <rdf:RDF xmlns:dc="http://purl.org/dc/elements/1.1/" xmlns:cc="http://creativecommons.org/ns#" xmlns:rdf="http://www.w3.org/1999/02/22-rdf-syntax-ns#">
   <cc:Work>
    <dc:type rdf:resource="http://purl.org/dc/dcmitype/StillImage"/>
    <dc:date>2026-01-11T01:54:57.584665</dc:date>
    <dc:format>image/svg+xml</dc:format>
    <dc:creator>
     <cc:Agent>
      <dc:title>Matplotlib v3.10.5, https://matplotlib.org/</dc:title>
     </cc:Agent>
    </dc:creator>
   </cc:Work>
  </rdf:RDF>
 </metadata>
 <defs>
  <style type="text/css">*{stroke-linejoin: round; stroke-linecap: butt}</style>
 </defs>
 <g id="figure_1">
  <g id="patch_1">
   <path d="M 0 280.047563 
L 1000.934062 280.047563 
L 1000.934062 0 
L 0 0 
z
" style="fill: #ffffff"/>
  </g>
  <g id="axes_1">
   <g id="patch_2">
    <path d="M 44.749063 241.5235 
L 331.064063 241.5235 
L 331.064063 35.7555 
L 44.749063 35.7555 
z
" style="fill: #ffffff"/>
   </g>
   <g id="FillBetweenPolyCollection_1">
    <defs>
     <path id="md128e82412" d="M 57.763381 -176.669744 
L 57.763381 -168.755143 
L 109.820653 -137.666653 
L 161.877926 -114.701016 
L 213.935199 -113.738155 
L 265.992472 -103.659672 
L 318.049744 -88.375778 
L 318.049744 -146.153892 
L 318.049744 -146.153892 
L 265.992472 -142.88066 
L 213.935199 -138.819895 
L 161.877926 -133.75992 
L 109.820653 -153.157726 
L 57.763381 -176.669744 
z
" style="stroke: #e74c3c; stroke-opacity: 0.2"/>
    </defs>
    <g clip-path="url(#p124af57cd9)">
     <use xlink:href="#md128e82412" x="0" y="280.047563" style="fill: #e74c3c; fill-opacity: 0.2; stroke: #e74c3c; stroke-opacity: 0.2"/>
    </g>
   </g>
   <g id="FillBetweenPolyCollection_2">
    <defs>
     <path id="m70b95ea55f" d="M 57.763381 -180.679143 
L 57.763381 -174.916128 
L 109.820653 -145.072799 
L 161.877926 -119.885106 
L 213.935199 -125.076309 
L 265.992472 -123.929499 
L 318.049744 -119.595997 
L 318.049744 -146.759478 
L 318.049744 -146.759478 
L 265.992472 -147.932286 
L 213.935199 -148.964752 
L 161.877926 -146.35986 
L 109.820653 -160.495701 
L 57.763381 -180.679143 
z
" style="stroke: #3498db; stroke-opacity: 0.2"/>
    </defs>
    <g clip-path="url(#p124af57cd9)">
     <use xlink:href="#m70b95ea55f" x="0" y="280.047563" style="fill: #3498db; fill-opacity: 0.2; stroke: #3498db; stroke-opacity: 0.2"/>
    </g>
   </g>
   <g id="FillBetweenPolyCollection_3">
    <defs>
     <path id="m890a340853" d="M 57.763381 -180.44632 
L 57.763381 -174.744257 
L 109.820653 -144.758238 
L 161.877926 -119.930133 
L 213.935199 -125.104424 
L 265.992472 -123.470305 
L 318.049744 -118.584637 
L 318.049744 -146.957676 
L 318.049744 -146.957676 
L 265.992472 -147.845073 
L 213.935199 -148.539071 
L 161.877926 -145.916752 
L 109.820653 -160.0682 
L 57.763381 -180.44632 
z
" style="stroke: #2ecc71; stroke-opacity: 0.2"/>
    </defs>
    <g clip-path="url(#p124af57cd9)">
     <use xlink:href="#m890a340853" x="0" y="280.047563" style="fill: #2ecc71; fill-opacity: 0.2; stroke: #2ecc71; stroke-opacity: 0.2"/>
    </g>
   </g>
   <g id="matplotlib.axis_1">
    <g id="xtick_1">
     <g id="line2d_1">
      <path d="M 57.763381 241.5235 
L 57.763381 35.7555 
" clip-path="url(#p124af57cd9)" style="fill: none; stroke: #b0b0b0; stroke-opacity: 0.3; stroke-width: 0.8; stroke-linecap: square"/>
     </g>
     <g id="line2d_2">
      <defs>
       <path id="m8380fe4e4f" d="M 0 0 
L 0 3.5 
" style="stroke: #000000; stroke-width: 0.8"/>
      </defs>
      <g>
       <use xlink:href="#m8380fe4e4f" x="57.763381" y="241.5235" style="stroke: #000000; stroke-width: 0.8"/>
      </g>
     </g>
     <g id="text_1">
      <!-- 0 -->
      <g transform="translate(54.582131 256.121938) scale(0.1 -0.1)">
       <defs>
        <path id="DejaVuSans-30" d="M 2034 4250 
Q 1547 4250 1301 3770 
Q 1056 3291 1056 2328 
Q 1056 1369 1301 889 
Q 1547 409 2034 409 
Q 2525 409 2770 889 
Q 3016 1369 3016 2328 
Q 3016 3291 2770 3770 
Q 2525 4250 2034 4250 
z
M 2034 4750 
Q 2819 4750 3233 4129 
Q 3647 3509 3647 2328 
Q 3647 1150 3233 529 
Q 2819 -91 2034 -91 
Q 1250 -91 836 529 
Q 422 1150 422 2328 
Q 422 3509 836 4129 
Q 1250 4750 2034 4750 
z
" transform="scale(0.015625)"/>
       </defs>
       <use xlink:href="#DejaVuSans-30"/>
      </g>
     </g>
    </g>
    <g id="xtick_2">
     <g id="line2d_3">
      <path d="M 109.820653 241.5235 
L 109.820653 35.7555 
" clip-path="url(#p124af57cd9)" style="fill: none; stroke: #b0b0b0; stroke-opacity: 0.3; stroke-width: 0.8; stroke-linecap: square"/>
     </g>
     <g id="line2d_4">
      <g>
       <use xlink:href="#m8380fe4e4f" x="109.820653" y="241.5235" style="stroke: #000000; stroke-width: 0.8"/>
      </g>
     </g>
     <g id="text_2">
      <!-- 1 -->
      <g transform="translate(106.639403 256.121938) scale(0.1 -0.1)">
       <defs>
        <path id="DejaVuSans-31" d="M 794 531 
L 1825 531 
L 1825 4091 
L 703 3866 
L 703 4441 
L 1819 4666 
L 2450 4666 
L 2450 531 
L 3481 531 
L 3481 0 
L 794 0 
L 794 531 
z
" transform="scale(0.015625)"/>
       </defs>
       <use xlink:href="#DejaVuSans-31"/>
      </g>
     </g>
    </g>
    <g id="xtick_3">
     <g id="line2d_5">
      <path d="M 161.877926 241.5235 
L 161.877926 35.7555 
" clip-path="url(#p124af57cd9)" style="fill: none; stroke: #b0b0b0; stroke-opacity: 0.3; stroke-width: 0.8; stroke-linecap: square"/>
     </g>
     <g id="line2d_6">
      <g>
       <use xlink:href="#m8380fe4e4f" x="161.877926" y="241.5235" style="stroke: #000000; stroke-width: 0.8"/>
      </g>
     </g>
     <g id="text_3">
      <!-- 2 -->
      <g transform="translate(158.696676 256.121938) scale(0.1 -0.1)">
       <defs>
        <path id="DejaVuSans-32" d="M 1228 531 
L 3431 531 
L 3431 0 
L 469 0 
L 469 531 
Q 828 903 1448 1529 
Q 2069 2156 2228 2338 
Q 2531 2678 2651 2914 
Q 2772 3150 2772 3378 
Q 2772 3750 2511 3984 
Q 2250 4219 1831 4219 
Q 1534 4219 1204 4116 
Q 875 4013 500 3803 
L 500 4441 
Q 881 4594 1212 4672 
Q 1544 4750 1819 4750 
Q 2544 4750 2975 4387 
Q 3406 4025 3406 3419 
Q 3406 3131 3298 2873 
Q 3191 2616 2906 2266 
Q 2828 2175 2409 1742 
Q 1991 1309 1228 531 
z
" transform="scale(0.015625)"/>
       </defs>
       <use xlink:href="#DejaVuSans-32"/>
      </g>
     </g>
    </g>
    <g id="xtick_4">
     <g id="line2d_7">
      <path d="M 213.935199 241.5235 
L 213.935199 35.7555 
" clip-path="url(#p124af57cd9)" style="fill: none; stroke: #b0b0b0; stroke-opacity: 0.3; stroke-width: 0.8; stroke-linecap: square"/>
     </g>
     <g id="line2d_8">
      <g>
       <use xlink:href="#m8380fe4e4f" x="213.935199" y="241.5235" style="stroke: #000000; stroke-width: 0.8"/>
      </g>
     </g>
     <g id="text_4">
      <!-- 3 -->
      <g transform="translate(210.753949 256.121938) scale(0.1 -0.1)">
       <defs>
        <path id="DejaVuSans-33" d="M 2597 2516 
Q 3050 2419 3304 2112 
Q 3559 1806 3559 1356 
Q 3559 666 3084 287 
Q 2609 -91 1734 -91 
Q 1441 -91 1130 -33 
Q 819 25 488 141 
L 488 750 
Q 750 597 1062 519 
Q 1375 441 1716 441 
Q 2309 441 2620 675 
Q 2931 909 2931 1356 
Q 2931 1769 2642 2001 
Q 2353 2234 1838 2234 
L 1294 2234 
L 1294 2753 
L 1863 2753 
Q 2328 2753 2575 2939 
Q 2822 3125 2822 3475 
Q 2822 3834 2567 4026 
Q 2313 4219 1838 4219 
Q 1578 4219 1281 4162 
Q 984 4106 628 3988 
L 628 4550 
Q 988 4650 1302 4700 
Q 1616 4750 1894 4750 
Q 2613 4750 3031 4423 
Q 3450 4097 3450 3541 
Q 3450 3153 3228 2886 
Q 3006 2619 2597 2516 
z
" transform="scale(0.015625)"/>
       </defs>
       <use xlink:href="#DejaVuSans-33"/>
      </g>
     </g>
    </g>
    <g id="xtick_5">
     <g id="line2d_9">
      <path d="M 265.992472 241.5235 
L 265.992472 35.7555 
" clip-path="url(#p124af57cd9)" style="fill: none; stroke: #b0b0b0; stroke-opacity: 0.3; stroke-width: 0.8; stroke-linecap: square"/>
     </g>
     <g id="line2d_10">
      <g>
       <use xlink:href="#m8380fe4e4f" x="265.992472" y="241.5235" style="stroke: #000000; stroke-width: 0.8"/>
      </g>
     </g>
     <g id="text_5">
      <!-- 4 -->
      <g transform="translate(262.811222 256.121938) scale(0.1 -0.1)">
       <defs>
        <path id="DejaVuSans-34" d="M 2419 4116 
L 825 1625 
L 2419 1625 
L 2419 4116 
z
M 2253 4666 
L 3047 4666 
L 3047 1625 
L 3713 1625 
L 3713 1100 
L 3047 1100 
L 3047 0 
L 2419 0 
L 2419 1100 
L 313 1100 
L 313 1709 
L 2253 4666 
z
" transform="scale(0.015625)"/>
       </defs>
       <use xlink:href="#DejaVuSans-34"/>
      </g>
     </g>
    </g>
    <g id="xtick_6">
     <g id="line2d_11">
      <path d="M 318.049744 241.5235 
L 318.049744 35.7555 
" clip-path="url(#p124af57cd9)" style="fill: none; stroke: #b0b0b0; stroke-opacity: 0.3; stroke-width: 0.8; stroke-linecap: square"/>
     </g>
     <g id="line2d_12">
      <g>
       <use xlink:href="#m8380fe4e4f" x="318.049744" y="241.5235" style="stroke: #000000; stroke-width: 0.8"/>
      </g>
     </g>
     <g id="text_6">
      <!-- 5 -->
      <g transform="translate(314.868494 256.121938) scale(0.1 -0.1)">
       <defs>
        <path id="DejaVuSans-35" d="M 691 4666 
L 3169 4666 
L 3169 4134 
L 1269 4134 
L 1269 2991 
Q 1406 3038 1543 3061 
Q 1681 3084 1819 3084 
Q 2600 3084 3056 2656 
Q 3513 2228 3513 1497 
Q 3513 744 3044 326 
Q 2575 -91 1722 -91 
Q 1428 -91 1123 -41 
Q 819 9 494 109 
L 494 744 
Q 775 591 1075 516 
Q 1375 441 1709 441 
Q 2250 441 2565 725 
Q 2881 1009 2881 1497 
Q 2881 1984 2565 2268 
Q 2250 2553 1709 2553 
Q 1456 2553 1204 2497 
Q 953 2441 691 2322 
L 691 4666 
z
" transform="scale(0.015625)"/>
       </defs>
       <use xlink:href="#DejaVuSans-35"/>
      </g>
     </g>
    </g>
    <g id="text_7">
     <!-- Refinement Step -->
     <g transform="translate(141.959219 270.559906) scale(0.11 -0.11)">
      <defs>
       <path id="DejaVuSans-52" d="M 2841 2188 
Q 3044 2119 3236 1894 
Q 3428 1669 3622 1275 
L 4263 0 
L 3584 0 
L 2988 1197 
Q 2756 1666 2539 1819 
Q 2322 1972 1947 1972 
L 1259 1972 
L 1259 0 
L 628 0 
L 628 4666 
L 2053 4666 
Q 2853 4666 3247 4331 
Q 3641 3997 3641 3322 
Q 3641 2881 3436 2590 
Q 3231 2300 2841 2188 
z
M 1259 4147 
L 1259 2491 
L 2053 2491 
Q 2509 2491 2742 2702 
Q 2975 2913 2975 3322 
Q 2975 3731 2742 3939 
Q 2509 4147 2053 4147 
L 1259 4147 
z
" transform="scale(0.015625)"/>
       <path id="DejaVuSans-65" d="M 3597 1894 
L 3597 1613 
L 953 1613 
Q 991 1019 1311 708 
Q 1631 397 2203 397 
Q 2534 397 2845 478 
Q 3156 559 3463 722 
L 3463 178 
Q 3153 47 2828 -22 
Q 2503 -91 2169 -91 
Q 1331 -91 842 396 
Q 353 884 353 1716 
Q 353 2575 817 3079 
Q 1281 3584 2069 3584 
Q 2775 3584 3186 3129 
Q 3597 2675 3597 1894 
z
M 3022 2063 
Q 3016 2534 2758 2815 
Q 2500 3097 2075 3097 
Q 1594 3097 1305 2825 
Q 1016 2553 972 2059 
L 3022 2063 
z
" transform="scale(0.015625)"/>
       <path id="DejaVuSans-66" d="M 2375 4863 
L 2375 4384 
L 1825 4384 
Q 1516 4384 1395 4259 
Q 1275 4134 1275 3809 
L 1275 3500 
L 2222 3500 
L 2222 3053 
L 1275 3053 
L 1275 0 
L 697 0 
L 697 3053 
L 147 3053 
L 147 3500 
L 697 3500 
L 697 3744 
Q 697 4328 969 4595 
Q 1241 4863 1831 4863 
L 2375 4863 
z
" transform="scale(0.015625)"/>
       <path id="DejaVuSans-69" d="M 603 3500 
L 1178 3500 
L 1178 0 
L 603 0 
L 603 3500 
z
M 603 4863 
L 1178 4863 
L 1178 4134 
L 603 4134 
L 603 4863 
z
" transform="scale(0.015625)"/>
       <path id="DejaVuSans-6e" d="M 3513 2113 
L 3513 0 
L 2938 0 
L 2938 2094 
Q 2938 2591 2744 2837 
Q 2550 3084 2163 3084 
Q 1697 3084 1428 2787 
Q 1159 2491 1159 1978 
L 1159 0 
L 581 0 
L 581 3500 
L 1159 3500 
L 1159 2956 
Q 1366 3272 1645 3428 
Q 1925 3584 2291 3584 
Q 2894 3584 3203 3211 
Q 3513 2838 3513 2113 
z
" transform="scale(0.015625)"/>
       <path id="DejaVuSans-6d" d="M 3328 2828 
Q 3544 3216 3844 3400 
Q 4144 3584 4550 3584 
Q 5097 3584 5394 3201 
Q 5691 2819 5691 2113 
L 5691 0 
L 5113 0 
L 5113 2094 
Q 5113 2597 4934 2840 
Q 4756 3084 4391 3084 
Q 3944 3084 3684 2787 
Q 3425 2491 3425 1978 
L 3425 0 
L 2847 0 
L 2847 2094 
Q 2847 2600 2669 2842 
Q 2491 3084 2119 3084 
Q 1678 3084 1418 2786 
Q 1159 2488 1159 1978 
L 1159 0 
L 581 0 
L 581 3500 
L 1159 3500 
L 1159 2956 
Q 1356 3278 1631 3431 
Q 1906 3584 2284 3584 
Q 2666 3584 2933 3390 
Q 3200 3197 3328 2828 
z
" transform="scale(0.015625)"/>
       <path id="DejaVuSans-74" d="M 1172 4494 
L 1172 3500 
L 2356 3500 
L 2356 3053 
L 1172 3053 
L 1172 1153 
Q 1172 725 1289 603 
Q 1406 481 1766 481 
L 2356 481 
L 2356 0 
L 1766 0 
Q 1100 0 847 248 
Q 594 497 594 1153 
L 594 3053 
L 172 3053 
L 172 3500 
L 594 3500 
L 594 4494 
L 1172 4494 
z
" transform="scale(0.015625)"/>
       <path id="DejaVuSans-20" transform="scale(0.015625)"/>
       <path id="DejaVuSans-53" d="M 3425 4513 
L 3425 3897 
Q 3066 4069 2747 4153 
Q 2428 4238 2131 4238 
Q 1616 4238 1336 4038 
Q 1056 3838 1056 3469 
Q 1056 3159 1242 3001 
Q 1428 2844 1947 2747 
L 2328 2669 
Q 3034 2534 3370 2195 
Q 3706 1856 3706 1288 
Q 3706 609 3251 259 
Q 2797 -91 1919 -91 
Q 1588 -91 1214 -16 
Q 841 59 441 206 
L 441 856 
Q 825 641 1194 531 
Q 1563 422 1919 422 
Q 2459 422 2753 634 
Q 3047 847 3047 1241 
Q 3047 1584 2836 1778 
Q 2625 1972 2144 2069 
L 1759 2144 
Q 1053 2284 737 2584 
Q 422 2884 422 3419 
Q 422 4038 858 4394 
Q 1294 4750 2059 4750 
Q 2388 4750 2728 4690 
Q 3069 4631 3425 4513 
z
" transform="scale(0.015625)"/>
       <path id="DejaVuSans-70" d="M 1159 525 
L 1159 -1331 
L 581 -1331 
L 581 3500 
L 1159 3500 
L 1159 2969 
Q 1341 3281 1617 3432 
Q 1894 3584 2278 3584 
Q 2916 3584 3314 3078 
Q 3713 2572 3713 1747 
Q 3713 922 3314 415 
Q 2916 -91 2278 -91 
Q 1894 -91 1617 61 
Q 1341 213 1159 525 
z
M 3116 1747 
Q 3116 2381 2855 2742 
Q 2594 3103 2138 3103 
Q 1681 3103 1420 2742 
Q 1159 2381 1159 1747 
Q 1159 1113 1420 752 
Q 1681 391 2138 391 
Q 2594 391 2855 752 
Q 3116 1113 3116 1747 
z
" transform="scale(0.015625)"/>
      </defs>
      <use xlink:href="#DejaVuSans-52"/>
      <use xlink:href="#DejaVuSans-65" transform="translate(64.982422 0)"/>
      <use xlink:href="#DejaVuSans-66" transform="translate(126.505859 0)"/>
      <use xlink:href="#DejaVuSans-69" transform="translate(161.710938 0)"/>
      <use xlink:href="#DejaVuSans-6e" transform="translate(189.494141 0)"/>
      <use xlink:href="#DejaVuSans-65" transform="translate(252.873047 0)"/>
      <use xlink:href="#DejaVuSans-6d" transform="translate(314.396484 0)"/>
      <use xlink:href="#DejaVuSans-65" transform="translate(411.808594 0)"/>
      <use xlink:href="#DejaVuSans-6e" transform="translate(473.332031 0)"/>
      <use xlink:href="#DejaVuSans-74" transform="translate(536.710938 0)"/>
      <use xlink:href="#DejaVuSans-20" transform="translate(575.919922 0)"/>
      <use xlink:href="#DejaVuSans-53" transform="translate(607.707031 0)"/>
      <use xlink:href="#DejaVuSans-74" transform="translate(671.183594 0)"/>
      <use xlink:href="#DejaVuSans-65" transform="translate(710.392578 0)"/>
      <use xlink:href="#DejaVuSans-70" transform="translate(771.916016 0)"/>
     </g>
    </g>
   </g>
   <g id="matplotlib.axis_2">
    <g id="ytick_1">
     <g id="line2d_13">
      <path d="M 44.749063 241.5235 
L 331.064063 241.5235 
" clip-path="url(#p124af57cd9)" style="fill: none; stroke: #b0b0b0; stroke-opacity: 0.3; stroke-width: 0.8; stroke-linecap: square"/>
     </g>
     <g id="line2d_14">
      <defs>
       <path id="m6ac30384d2" d="M 0 0 
L -3.5 0 
" style="stroke: #000000; stroke-width: 0.8"/>
      </defs>
      <g>
       <use xlink:href="#m6ac30384d2" x="44.749063" y="241.5235" style="stroke: #000000; stroke-width: 0.8"/>
      </g>
     </g>
     <g id="text_8">
      <!-- 2.5 -->
      <g transform="translate(21.845938 245.322719) scale(0.1 -0.1)">
       <defs>
        <path id="DejaVuSans-2e" d="M 684 794 
L 1344 794 
L 1344 0 
L 684 0 
L 684 794 
z
" transform="scale(0.015625)"/>
       </defs>
       <use xlink:href="#DejaVuSans-32"/>
       <use xlink:href="#DejaVuSans-2e" transform="translate(63.623047 0)"/>
       <use xlink:href="#DejaVuSans-35" transform="translate(95.410156 0)"/>
      </g>
     </g>
    </g>
    <g id="ytick_2">
     <g id="line2d_15">
      <path d="M 44.749063 212.128071 
L 331.064063 212.128071 
" clip-path="url(#p124af57cd9)" style="fill: none; stroke: #b0b0b0; stroke-opacity: 0.3; stroke-width: 0.8; stroke-linecap: square"/>
     </g>
     <g id="line2d_16">
      <g>
       <use xlink:href="#m6ac30384d2" x="44.749063" y="212.128071" style="stroke: #000000; stroke-width: 0.8"/>
      </g>
     </g>
     <g id="text_9">
      <!-- 3.0 -->
      <g transform="translate(21.845938 215.92729) scale(0.1 -0.1)">
       <use xlink:href="#DejaVuSans-33"/>
       <use xlink:href="#DejaVuSans-2e" transform="translate(63.623047 0)"/>
       <use xlink:href="#DejaVuSans-30" transform="translate(95.410156 0)"/>
      </g>
     </g>
    </g>
    <g id="ytick_3">
     <g id="line2d_17">
      <path d="M 44.749063 182.732643 
L 331.064063 182.732643 
" clip-path="url(#p124af57cd9)" style="fill: none; stroke: #b0b0b0; stroke-opacity: 0.3; stroke-width: 0.8; stroke-linecap: square"/>
     </g>
     <g id="line2d_18">
      <g>
       <use xlink:href="#m6ac30384d2" x="44.749063" y="182.732643" style="stroke: #000000; stroke-width: 0.8"/>
      </g>
     </g>
     <g id="text_10">
      <!-- 3.5 -->
      <g transform="translate(21.845938 186.531862) scale(0.1 -0.1)">
       <use xlink:href="#DejaVuSans-33"/>
       <use xlink:href="#DejaVuSans-2e" transform="translate(63.623047 0)"/>
       <use xlink:href="#DejaVuSans-35" transform="translate(95.410156 0)"/>
      </g>
     </g>
    </g>
    <g id="ytick_4">
     <g id="line2d_19">
      <path d="M 44.749063 153.337214 
L 331.064063 153.337214 
" clip-path="url(#p124af57cd9)" style="fill: none; stroke: #b0b0b0; stroke-opacity: 0.3; stroke-width: 0.8; stroke-linecap: square"/>
     </g>
     <g id="line2d_20">
      <g>
       <use xlink:href="#m6ac30384d2" x="44.749063" y="153.337214" style="stroke: #000000; stroke-width: 0.8"/>
      </g>
     </g>
     <g id="text_11">
      <!-- 4.0 -->
      <g transform="translate(21.845938 157.136433) scale(0.1 -0.1)">
       <use xlink:href="#DejaVuSans-34"/>
       <use xlink:href="#DejaVuSans-2e" transform="translate(63.623047 0)"/>
       <use xlink:href="#DejaVuSans-30" transform="translate(95.410156 0)"/>
      </g>
     </g>
    </g>
    <g id="ytick_5">
     <g id="line2d_21">
      <path d="M 44.749063 123.941786 
L 331.064063 123.941786 
" clip-path="url(#p124af57cd9)" style="fill: none; stroke: #b0b0b0; stroke-opacity: 0.3; stroke-width: 0.8; stroke-linecap: square"/>
     </g>
     <g id="line2d_22">
      <g>
       <use xlink:href="#m6ac30384d2" x="44.749063" y="123.941786" style="stroke: #000000; stroke-width: 0.8"/>
      </g>
     </g>
     <g id="text_12">
      <!-- 4.5 -->
      <g transform="translate(21.845938 127.741004) scale(0.1 -0.1)">
       <use xlink:href="#DejaVuSans-34"/>
       <use xlink:href="#DejaVuSans-2e" transform="translate(63.623047 0)"/>
       <use xlink:href="#DejaVuSans-35" transform="translate(95.410156 0)"/>
      </g>
     </g>
    </g>
    <g id="ytick_6">
     <g id="line2d_23">
      <path d="M 44.749063 94.546357 
L 331.064063 94.546357 
" clip-path="url(#p124af57cd9)" style="fill: none; stroke: #b0b0b0; stroke-opacity: 0.3; stroke-width: 0.8; stroke-linecap: square"/>
     </g>
     <g id="line2d_24">
      <g>
       <use xlink:href="#m6ac30384d2" x="44.749063" y="94.546357" style="stroke: #000000; stroke-width: 0.8"/>
      </g>
     </g>
     <g id="text_13">
      <!-- 5.0 -->
      <g transform="translate(21.845938 98.345576) scale(0.1 -0.1)">
       <use xlink:href="#DejaVuSans-35"/>
       <use xlink:href="#DejaVuSans-2e" transform="translate(63.623047 0)"/>
       <use xlink:href="#DejaVuSans-30" transform="translate(95.410156 0)"/>
      </g>
     </g>
    </g>
    <g id="ytick_7">
     <g id="line2d_25">
      <path d="M 44.749063 65.150929 
L 331.064063 65.150929 
" clip-path="url(#p124af57cd9)" style="fill: none; stroke: #b0b0b0; stroke-opacity: 0.3; stroke-width: 0.8; stroke-linecap: square"/>
     </g>
     <g id="line2d_26">
      <g>
       <use xlink:href="#m6ac30384d2" x="44.749063" y="65.150929" style="stroke: #000000; stroke-width: 0.8"/>
      </g>
     </g>
     <g id="text_14">
      <!-- 5.5 -->
      <g transform="translate(21.845938 68.950147) scale(0.1 -0.1)">
       <use xlink:href="#DejaVuSans-35"/>
       <use xlink:href="#DejaVuSans-2e" transform="translate(63.623047 0)"/>
       <use xlink:href="#DejaVuSans-35" transform="translate(95.410156 0)"/>
      </g>
     </g>
    </g>
    <g id="ytick_8">
     <g id="line2d_27">
      <path d="M 44.749063 35.7555 
L 331.064063 35.7555 
" clip-path="url(#p124af57cd9)" style="fill: none; stroke: #b0b0b0; stroke-opacity: 0.3; stroke-width: 0.8; stroke-linecap: square"/>
     </g>
     <g id="line2d_28">
      <g>
       <use xlink:href="#m6ac30384d2" x="44.749063" y="35.7555" style="stroke: #000000; stroke-width: 0.8"/>
      </g>
     </g>
     <g id="text_15">
      <!-- 6.0 -->
      <g transform="translate(21.845938 39.554719) scale(0.1 -0.1)">
       <defs>
        <path id="DejaVuSans-36" d="M 2113 2584 
Q 1688 2584 1439 2293 
Q 1191 2003 1191 1497 
Q 1191 994 1439 701 
Q 1688 409 2113 409 
Q 2538 409 2786 701 
Q 3034 994 3034 1497 
Q 3034 2003 2786 2293 
Q 2538 2584 2113 2584 
z
M 3366 4563 
L 3366 3988 
Q 3128 4100 2886 4159 
Q 2644 4219 2406 4219 
Q 1781 4219 1451 3797 
Q 1122 3375 1075 2522 
Q 1259 2794 1537 2939 
Q 1816 3084 2150 3084 
Q 2853 3084 3261 2657 
Q 3669 2231 3669 1497 
Q 3669 778 3244 343 
Q 2819 -91 2113 -91 
Q 1303 -91 875 529 
Q 447 1150 447 2328 
Q 447 3434 972 4092 
Q 1497 4750 2381 4750 
Q 2619 4750 2861 4703 
Q 3103 4656 3366 4563 
z
" transform="scale(0.015625)"/>
       </defs>
       <use xlink:href="#DejaVuSans-36"/>
       <use xlink:href="#DejaVuSans-2e" transform="translate(63.623047 0)"/>
       <use xlink:href="#DejaVuSans-30" transform="translate(95.410156 0)"/>
      </g>
     </g>
    </g>
    <g id="text_16">
     <!-- State Entropy (nats) -->
     <g transform="translate(15.558281 194.229891) rotate(-90) scale(0.11 -0.11)">
      <defs>
       <path id="DejaVuSans-61" d="M 2194 1759 
Q 1497 1759 1228 1600 
Q 959 1441 959 1056 
Q 959 750 1161 570 
Q 1363 391 1709 391 
Q 2188 391 2477 730 
Q 2766 1069 2766 1631 
L 2766 1759 
L 2194 1759 
z
M 3341 1997 
L 3341 0 
L 2766 0 
L 2766 531 
Q 2569 213 2275 61 
Q 1981 -91 1556 -91 
Q 1019 -91 701 211 
Q 384 513 384 1019 
Q 384 1609 779 1909 
Q 1175 2209 1959 2209 
L 2766 2209 
L 2766 2266 
Q 2766 2663 2505 2880 
Q 2244 3097 1772 3097 
Q 1472 3097 1187 3025 
Q 903 2953 641 2809 
L 641 3341 
Q 956 3463 1253 3523 
Q 1550 3584 1831 3584 
Q 2591 3584 2966 3190 
Q 3341 2797 3341 1997 
z
" transform="scale(0.015625)"/>
       <path id="DejaVuSans-45" d="M 628 4666 
L 3578 4666 
L 3578 4134 
L 1259 4134 
L 1259 2753 
L 3481 2753 
L 3481 2222 
L 1259 2222 
L 1259 531 
L 3634 531 
L 3634 0 
L 628 0 
L 628 4666 
z
" transform="scale(0.015625)"/>
       <path id="DejaVuSans-72" d="M 2631 2963 
Q 2534 3019 2420 3045 
Q 2306 3072 2169 3072 
Q 1681 3072 1420 2755 
Q 1159 2438 1159 1844 
L 1159 0 
L 581 0 
L 581 3500 
L 1159 3500 
L 1159 2956 
Q 1341 3275 1631 3429 
Q 1922 3584 2338 3584 
Q 2397 3584 2469 3576 
Q 2541 3569 2628 3553 
L 2631 2963 
z
" transform="scale(0.015625)"/>
       <path id="DejaVuSans-6f" d="M 1959 3097 
Q 1497 3097 1228 2736 
Q 959 2375 959 1747 
Q 959 1119 1226 758 
Q 1494 397 1959 397 
Q 2419 397 2687 759 
Q 2956 1122 2956 1747 
Q 2956 2369 2687 2733 
Q 2419 3097 1959 3097 
z
M 1959 3584 
Q 2709 3584 3137 3096 
Q 3566 2609 3566 1747 
Q 3566 888 3137 398 
Q 2709 -91 1959 -91 
Q 1206 -91 779 398 
Q 353 888 353 1747 
Q 353 2609 779 3096 
Q 1206 3584 1959 3584 
z
" transform="scale(0.015625)"/>
       <path id="DejaVuSans-79" d="M 2059 -325 
Q 1816 -950 1584 -1140 
Q 1353 -1331 966 -1331 
L 506 -1331 
L 506 -850 
L 844 -850 
Q 1081 -850 1212 -737 
Q 1344 -625 1503 -206 
L 1606 56 
L 191 3500 
L 800 3500 
L 1894 763 
L 2988 3500 
L 3597 3500 
L 2059 -325 
z
" transform="scale(0.015625)"/>
       <path id="DejaVuSans-28" d="M 1984 4856 
Q 1566 4138 1362 3434 
Q 1159 2731 1159 2009 
Q 1159 1288 1364 580 
Q 1569 -128 1984 -844 
L 1484 -844 
Q 1016 -109 783 600 
Q 550 1309 550 2009 
Q 550 2706 781 3412 
Q 1013 4119 1484 4856 
L 1984 4856 
z
" transform="scale(0.015625)"/>
       <path id="DejaVuSans-73" d="M 2834 3397 
L 2834 2853 
Q 2591 2978 2328 3040 
Q 2066 3103 1784 3103 
Q 1356 3103 1142 2972 
Q 928 2841 928 2578 
Q 928 2378 1081 2264 
Q 1234 2150 1697 2047 
L 1894 2003 
Q 2506 1872 2764 1633 
Q 3022 1394 3022 966 
Q 3022 478 2636 193 
Q 2250 -91 1575 -91 
Q 1294 -91 989 -36 
Q 684 19 347 128 
L 347 722 
Q 666 556 975 473 
Q 1284 391 1588 391 
Q 1994 391 2212 530 
Q 2431 669 2431 922 
Q 2431 1156 2273 1281 
Q 2116 1406 1581 1522 
L 1381 1569 
Q 847 1681 609 1914 
Q 372 2147 372 2553 
Q 372 3047 722 3315 
Q 1072 3584 1716 3584 
Q 2034 3584 2315 3537 
Q 2597 3491 2834 3397 
z
" transform="scale(0.015625)"/>
       <path id="DejaVuSans-29" d="M 513 4856 
L 1013 4856 
Q 1481 4119 1714 3412 
Q 1947 2706 1947 2009 
Q 1947 1309 1714 600 
Q 1481 -109 1013 -844 
L 513 -844 
Q 928 -128 1133 580 
Q 1338 1288 1338 2009 
Q 1338 2731 1133 3434 
Q 928 4138 513 4856 
z
" transform="scale(0.015625)"/>
      </defs>
      <use xlink:href="#DejaVuSans-53"/>
      <use xlink:href="#DejaVuSans-74" transform="translate(63.476562 0)"/>
      <use xlink:href="#DejaVuSans-61" transform="translate(102.685547 0)"/>
      <use xlink:href="#DejaVuSans-74" transform="translate(163.964844 0)"/>
      <use xlink:href="#DejaVuSans-65" transform="translate(203.173828 0)"/>
      <use xlink:href="#DejaVuSans-20" transform="translate(264.697266 0)"/>
      <use xlink:href="#DejaVuSans-45" transform="translate(296.484375 0)"/>
      <use xlink:href="#DejaVuSans-6e" transform="translate(359.667969 0)"/>
      <use xlink:href="#DejaVuSans-74" transform="translate(423.046875 0)"/>
      <use xlink:href="#DejaVuSans-72" transform="translate(462.255859 0)"/>
      <use xlink:href="#DejaVuSans-6f" transform="translate(501.119141 0)"/>
      <use xlink:href="#DejaVuSans-70" transform="translate(562.300781 0)"/>
      <use xlink:href="#DejaVuSans-79" transform="translate(625.777344 0)"/>
      <use xlink:href="#DejaVuSans-20" transform="translate(684.957031 0)"/>
      <use xlink:href="#DejaVuSans-28" transform="translate(716.744141 0)"/>
      <use xlink:href="#DejaVuSans-6e" transform="translate(755.757812 0)"/>
      <use xlink:href="#DejaVuSans-61" transform="translate(819.136719 0)"/>
      <use xlink:href="#DejaVuSans-74" transform="translate(880.416016 0)"/>
      <use xlink:href="#DejaVuSans-73" transform="translate(919.625 0)"/>
      <use xlink:href="#DejaVuSans-29" transform="translate(971.724609 0)"/>
     </g>
    </g>
   </g>
   <g id="line2d_29">
    <path d="M 57.763381 107.335119 
L 109.820653 134.635373 
L 161.877926 155.817095 
L 213.935199 153.768537 
L 265.992472 156.777396 
L 318.049744 162.782727 
" clip-path="url(#p124af57cd9)" style="fill: none; stroke: #e74c3c; stroke-width: 2; stroke-linecap: square"/>
    <defs>
     <path id="m498c38bfd7" d="M 0 3 
C 0.795609 3 1.55874 2.683901 2.12132 2.12132 
C 2.683901 1.55874 3 0.795609 3 0 
C 3 -0.795609 2.683901 -1.55874 2.12132 -2.12132 
C 1.55874 -2.683901 0.795609 -3 0 -3 
C -0.795609 -3 -1.55874 -2.683901 -2.12132 -2.12132 
C -2.683901 -1.55874 -3 -0.795609 -3 0 
C -3 0.795609 -2.683901 1.55874 -2.12132 2.12132 
C -1.55874 2.683901 -0.795609 3 0 3 
z
" style="stroke: #e74c3c"/>
    </defs>
    <g clip-path="url(#p124af57cd9)">
     <use xlink:href="#m498c38bfd7" x="57.763381" y="107.335119" style="fill: #e74c3c; stroke: #e74c3c"/>
     <use xlink:href="#m498c38bfd7" x="109.820653" y="134.635373" style="fill: #e74c3c; stroke: #e74c3c"/>
     <use xlink:href="#m498c38bfd7" x="161.877926" y="155.817095" style="fill: #e74c3c; stroke: #e74c3c"/>
     <use xlink:href="#m498c38bfd7" x="213.935199" y="153.768537" style="fill: #e74c3c; stroke: #e74c3c"/>
     <use xlink:href="#m498c38bfd7" x="265.992472" y="156.777396" style="fill: #e74c3c; stroke: #e74c3c"/>
     <use xlink:href="#m498c38bfd7" x="318.049744" y="162.782727" style="fill: #e74c3c; stroke: #e74c3c"/>
    </g>
   </g>
   <g id="line2d_30">
    <path d="M 57.763381 102.249927 
L 109.820653 127.263312 
L 161.877926 146.92508 
L 213.935199 143.027032 
L 265.992472 144.11667 
L 318.049744 146.869825 
" clip-path="url(#p124af57cd9)" style="fill: none; stroke: #3498db; stroke-width: 2; stroke-linecap: square"/>
    <defs>
     <path id="m03f4c7e7e8" d="M 0 3 
C 0.795609 3 1.55874 2.683901 2.12132 2.12132 
C 2.683901 1.55874 3 0.795609 3 0 
C 3 -0.795609 2.683901 -1.55874 2.12132 -2.12132 
C 1.55874 -2.683901 0.795609 -3 0 -3 
C -0.795609 -3 -1.55874 -2.683901 -2.12132 -2.12132 
C -2.683901 -1.55874 -3 -0.795609 -3 0 
C -3 0.795609 -2.683901 1.55874 -2.12132 2.12132 
C -1.55874 2.683901 -0.795609 3 0 3 
z
" style="stroke: #3498db"/>
    </defs>
    <g clip-path="url(#p124af57cd9)">
     <use xlink:href="#m03f4c7e7e8" x="57.763381" y="102.249927" style="fill: #3498db; stroke: #3498db"/>
     <use xlink:href="#m03f4c7e7e8" x="109.820653" y="127.263312" style="fill: #3498db; stroke: #3498db"/>
     <use xlink:href="#m03f4c7e7e8" x="161.877926" y="146.92508" style="fill: #3498db; stroke: #3498db"/>
     <use xlink:href="#m03f4c7e7e8" x="213.935199" y="143.027032" style="fill: #3498db; stroke: #3498db"/>
     <use xlink:href="#m03f4c7e7e8" x="265.992472" y="144.11667" style="fill: #3498db; stroke: #3498db"/>
     <use xlink:href="#m03f4c7e7e8" x="318.049744" y="146.869825" style="fill: #3498db; stroke: #3498db"/>
    </g>
   </g>
   <g id="line2d_31">
    <path d="M 57.763381 102.452274 
L 109.820653 127.634344 
L 161.877926 147.12412 
L 213.935199 143.225815 
L 265.992472 144.389873 
L 318.049744 147.276406 
" clip-path="url(#p124af57cd9)" style="fill: none; stroke: #2ecc71; stroke-width: 2; stroke-linecap: square"/>
    <defs>
     <path id="ma8025a6a89" d="M 0 3 
C 0.795609 3 1.55874 2.683901 2.12132 2.12132 
C 2.683901 1.55874 3 0.795609 3 0 
C 3 -0.795609 2.683901 -1.55874 2.12132 -2.12132 
C 1.55874 -2.683901 0.795609 -3 0 -3 
C -0.795609 -3 -1.55874 -2.683901 -2.12132 -2.12132 
C -2.683901 -1.55874 -3 -0.795609 -3 0 
C -3 0.795609 -2.683901 1.55874 -2.12132 2.12132 
C -1.55874 2.683901 -0.795609 3 0 3 
z
" style="stroke: #2ecc71"/>
    </defs>
    <g clip-path="url(#p124af57cd9)">
     <use xlink:href="#ma8025a6a89" x="57.763381" y="102.452274" style="fill: #2ecc71; stroke: #2ecc71"/>
     <use xlink:href="#ma8025a6a89" x="109.820653" y="127.634344" style="fill: #2ecc71; stroke: #2ecc71"/>
     <use xlink:href="#ma8025a6a89" x="161.877926" y="147.12412" style="fill: #2ecc71; stroke: #2ecc71"/>
     <use xlink:href="#ma8025a6a89" x="213.935199" y="143.225815" style="fill: #2ecc71; stroke: #2ecc71"/>
     <use xlink:href="#ma8025a6a89" x="265.992472" y="144.389873" style="fill: #2ecc71; stroke: #2ecc71"/>
     <use xlink:href="#ma8025a6a89" x="318.049744" y="147.276406" style="fill: #2ecc71; stroke: #2ecc71"/>
    </g>
   </g>
   <g id="line2d_32">
    <path d="M 44.749063 212.128071 
L 331.064063 212.128071 
" clip-path="url(#p124af57cd9)" style="fill: none; stroke-dasharray: 5.55,2.4; stroke-dashoffset: 0; stroke: #808080; stroke-width: 1.5"/>
   </g>
   <g id="line2d_33">
    <path d="M 44.749063 62.494908 
L 331.064063 62.494908 
" clip-path="url(#p124af57cd9)" style="fill: none; stroke-dasharray: 1,1.65; stroke-dashoffset: 0; stroke: #000000"/>
   </g>
   <g id="patch_3">
    <path d="M 44.749063 241.5235 
L 44.749063 35.7555 
" style="fill: none; stroke: #000000; stroke-width: 0.8; stroke-linejoin: miter; stroke-linecap: square"/>
   </g>
   <g id="patch_4">
    <path d="M 331.064063 241.5235 
L 331.064063 35.7555 
" style="fill: none; stroke: #000000; stroke-width: 0.8; stroke-linejoin: miter; stroke-linecap: square"/>
   </g>
   <g id="patch_5">
    <path d="M 44.749063 241.5235 
L 331.064063 241.5235 
" style="fill: none; stroke: #000000; stroke-width: 0.8; stroke-linejoin: miter; stroke-linecap: square"/>
   </g>
   <g id="patch_6">
    <path d="M 44.749063 35.7555 
L 331.064063 35.7555 
" style="fill: none; stroke: #000000; stroke-width: 0.8; stroke-linejoin: miter; stroke-linecap: square"/>
   </g>
   <g id="text_17">
    <!-- A. State Entropy Trajectories -->
    <g transform="translate(102.533125 16.318125) scale(0.12 -0.12)">
     <defs>
      <path id="DejaVuSans-41" d="M 2188 4044 
L 1331 1722 
L 3047 1722 
L 2188 4044 
z
M 1831 4666 
L 2547 4666 
L 4325 0 
L 3669 0 
L 3244 1197 
L 1141 1197 
L 716 0 
L 50 0 
L 1831 4666 
z
" transform="scale(0.015625)"/>
      <path id="DejaVuSans-54" d="M -19 4666 
L 3928 4666 
L 3928 4134 
L 2272 4134 
L 2272 0 
L 1638 0 
L 1638 4134 
L -19 4134 
L -19 4666 
z
" transform="scale(0.015625)"/>
      <path id="DejaVuSans-6a" d="M 603 3500 
L 1178 3500 
L 1178 -63 
Q 1178 -731 923 -1031 
Q 669 -1331 103 -1331 
L -116 -1331 
L -116 -844 
L 38 -844 
Q 366 -844 484 -692 
Q 603 -541 603 -63 
L 603 3500 
z
M 603 4863 
L 1178 4863 
L 1178 4134 
L 603 4134 
L 603 4863 
z
" transform="scale(0.015625)"/>
      <path id="DejaVuSans-63" d="M 3122 3366 
L 3122 2828 
Q 2878 2963 2633 3030 
Q 2388 3097 2138 3097 
Q 1578 3097 1268 2742 
Q 959 2388 959 1747 
Q 959 1106 1268 751 
Q 1578 397 2138 397 
Q 2388 397 2633 464 
Q 2878 531 3122 666 
L 3122 134 
Q 2881 22 2623 -34 
Q 2366 -91 2075 -91 
Q 1284 -91 818 406 
Q 353 903 353 1747 
Q 353 2603 823 3093 
Q 1294 3584 2113 3584 
Q 2378 3584 2631 3529 
Q 2884 3475 3122 3366 
z
" transform="scale(0.015625)"/>
     </defs>
     <use xlink:href="#DejaVuSans-41"/>
     <use xlink:href="#DejaVuSans-2e" transform="translate(66.658203 0)"/>
     <use xlink:href="#DejaVuSans-20" transform="translate(98.445312 0)"/>
     <use xlink:href="#DejaVuSans-53" transform="translate(130.232422 0)"/>
     <use xlink:href="#DejaVuSans-74" transform="translate(193.708984 0)"/>
     <use xlink:href="#DejaVuSans-61" transform="translate(232.917969 0)"/>
     <use xlink:href="#DejaVuSans-74" transform="translate(294.197266 0)"/>
     <use xlink:href="#DejaVuSans-65" transform="translate(333.40625 0)"/>
     <use xlink:href="#DejaVuSans-20" transform="translate(394.929688 0)"/>
     <use xlink:href="#DejaVuSans-45" transform="translate(426.716797 0)"/>
     <use xlink:href="#DejaVuSans-6e" transform="translate(489.900391 0)"/>
     <use xlink:href="#DejaVuSans-74" transform="translate(553.279297 0)"/>
     <use xlink:href="#DejaVuSans-72" transform="translate(592.488281 0)"/>
     <use xlink:href="#DejaVuSans-6f" transform="translate(631.351562 0)"/>
     <use xlink:href="#DejaVuSans-70" transform="translate(692.533203 0)"/>
     <use xlink:href="#DejaVuSans-79" transform="translate(756.009766 0)"/>
     <use xlink:href="#DejaVuSans-20" transform="translate(815.189453 0)"/>
     <use xlink:href="#DejaVuSans-54" transform="translate(846.976562 0)"/>
     <use xlink:href="#DejaVuSans-72" transform="translate(893.310547 0)"/>
     <use xlink:href="#DejaVuSans-61" transform="translate(934.423828 0)"/>
     <use xlink:href="#DejaVuSans-6a" transform="translate(995.703125 0)"/>
     <use xlink:href="#DejaVuSans-65" transform="translate(1023.486328 0)"/>
     <use xlink:href="#DejaVuSans-63" transform="translate(1085.009766 0)"/>
     <use xlink:href="#DejaVuSans-74" transform="translate(1139.990234 0)"/>
     <use xlink:href="#DejaVuSans-6f" transform="translate(1179.199219 0)"/>
     <use xlink:href="#DejaVuSans-72" transform="translate(1240.380859 0)"/>
     <use xlink:href="#DejaVuSans-69" transform="translate(1281.494141 0)"/>
     <use xlink:href="#DejaVuSans-65" transform="translate(1309.277344 0)"/>
     <use xlink:href="#DejaVuSans-73" transform="translate(1370.800781 0)"/>
    </g>
    <!-- (mean ± std, n=10 seeds) -->
    <g transform="translate(108.450625 29.7555) scale(0.12 -0.12)">
     <defs>
      <path id="DejaVuSans-b1" d="M 2944 4013 
L 2944 2803 
L 4684 2803 
L 4684 2272 
L 2944 2272 
L 2944 1063 
L 2419 1063 
L 2419 2272 
L 678 2272 
L 678 2803 
L 2419 2803 
L 2419 4013 
L 2944 4013 
z
M 678 531 
L 4684 531 
L 4684 0 
L 678 0 
L 678 531 
z
" transform="scale(0.015625)"/>
      <path id="DejaVuSans-64" d="M 2906 2969 
L 2906 4863 
L 3481 4863 
L 3481 0 
L 2906 0 
L 2906 525 
Q 2725 213 2448 61 
Q 2172 -91 1784 -91 
Q 1150 -91 751 415 
Q 353 922 353 1747 
Q 353 2572 751 3078 
Q 1150 3584 1784 3584 
Q 2172 3584 2448 3432 
Q 2725 3281 2906 2969 
z
M 947 1747 
Q 947 1113 1208 752 
Q 1469 391 1925 391 
Q 2381 391 2643 752 
Q 2906 1113 2906 1747 
Q 2906 2381 2643 2742 
Q 2381 3103 1925 3103 
Q 1469 3103 1208 2742 
Q 947 2381 947 1747 
z
" transform="scale(0.015625)"/>
      <path id="DejaVuSans-2c" d="M 750 794 
L 1409 794 
L 1409 256 
L 897 -744 
L 494 -744 
L 750 256 
L 750 794 
z
" transform="scale(0.015625)"/>
      <path id="DejaVuSans-3d" d="M 678 2906 
L 4684 2906 
L 4684 2381 
L 678 2381 
L 678 2906 
z
M 678 1631 
L 4684 1631 
L 4684 1100 
L 678 1100 
L 678 1631 
z
" transform="scale(0.015625)"/>
     </defs>
     <use xlink:href="#DejaVuSans-28"/>
     <use xlink:href="#DejaVuSans-6d" transform="translate(39.013672 0)"/>
     <use xlink:href="#DejaVuSans-65" transform="translate(136.425781 0)"/>
     <use xlink:href="#DejaVuSans-61" transform="translate(197.949219 0)"/>
     <use xlink:href="#DejaVuSans-6e" transform="translate(259.228516 0)"/>
     <use xlink:href="#DejaVuSans-20" transform="translate(322.607422 0)"/>
     <use xlink:href="#DejaVuSans-b1" transform="translate(354.394531 0)"/>
     <use xlink:href="#DejaVuSans-20" transform="translate(438.183594 0)"/>
     <use xlink:href="#DejaVuSans-73" transform="translate(469.970703 0)"/>
     <use xlink:href="#DejaVuSans-74" transform="translate(522.070312 0)"/>
     <use xlink:href="#DejaVuSans-64" transform="translate(561.279297 0)"/>
     <use xlink:href="#DejaVuSans-2c" transform="translate(624.755859 0)"/>
     <use xlink:href="#DejaVuSans-20" transform="translate(656.542969 0)"/>
     <use xlink:href="#DejaVuSans-6e" transform="translate(688.330078 0)"/>
     <use xlink:href="#DejaVuSans-3d" transform="translate(751.708984 0)"/>
     <use xlink:href="#DejaVuSans-31" transform="translate(835.498047 0)"/>
     <use xlink:href="#DejaVuSans-30" transform="translate(899.121094 0)"/>
     <use xlink:href="#DejaVuSans-20" transform="translate(962.744141 0)"/>
     <use xlink:href="#DejaVuSans-73" transform="translate(994.53125 0)"/>
     <use xlink:href="#DejaVuSans-65" transform="translate(1046.630859 0)"/>
     <use xlink:href="#DejaVuSans-65" transform="translate(1108.154297 0)"/>
     <use xlink:href="#DejaVuSans-64" transform="translate(1169.677734 0)"/>
     <use xlink:href="#DejaVuSans-73" transform="translate(1233.154297 0)"/>
     <use xlink:href="#DejaVuSans-29" transform="translate(1285.253906 0)"/>
    </g>
   </g>
   <g id="legend_1">
    <g id="patch_7">
     <path d="M 243.91875 109.007062 
L 324.764063 109.007062 
Q 326.564063 109.007062 326.564063 107.207062 
L 326.564063 42.0555 
Q 326.564063 40.2555 324.764063 40.2555 
L 243.91875 40.2555 
Q 242.11875 40.2555 242.11875 42.0555 
L 242.11875 107.207062 
Q 242.11875 109.007062 243.91875 109.007062 
z
" style="fill: #ffffff; opacity: 0.8; stroke: #cccccc; stroke-linejoin: miter"/>
    </g>
    <g id="line2d_34">
     <path d="M 245.71875 47.544094 
L 254.71875 47.544094 
L 263.71875 47.544094 
" style="fill: none; stroke: #e74c3c; stroke-width: 2; stroke-linecap: square"/>
     <g>
      <use xlink:href="#m498c38bfd7" x="254.71875" y="47.544094" style="fill: #e74c3c; stroke: #e74c3c"/>
     </g>
    </g>
    <g id="text_18">
     <!-- PEAKED -->
     <g transform="translate(270.91875 50.694094) scale(0.09 -0.09)">
      <defs>
       <path id="DejaVuSans-50" d="M 1259 4147 
L 1259 2394 
L 2053 2394 
Q 2494 2394 2734 2622 
Q 2975 2850 2975 3272 
Q 2975 3691 2734 3919 
Q 2494 4147 2053 4147 
L 1259 4147 
z
M 628 4666 
L 2053 4666 
Q 2838 4666 3239 4311 
Q 3641 3956 3641 3272 
Q 3641 2581 3239 2228 
Q 2838 1875 2053 1875 
L 1259 1875 
L 1259 0 
L 628 0 
L 628 4666 
z
" transform="scale(0.015625)"/>
       <path id="DejaVuSans-4b" d="M 628 4666 
L 1259 4666 
L 1259 2694 
L 3353 4666 
L 4166 4666 
L 1850 2491 
L 4331 0 
L 3500 0 
L 1259 2247 
L 1259 0 
L 628 0 
L 628 4666 
z
" transform="scale(0.015625)"/>
       <path id="DejaVuSans-44" d="M 1259 4147 
L 1259 519 
L 2022 519 
Q 2988 519 3436 956 
Q 3884 1394 3884 2338 
Q 3884 3275 3436 3711 
Q 2988 4147 2022 4147 
L 1259 4147 
z
M 628 4666 
L 1925 4666 
Q 3281 4666 3915 4102 
Q 4550 3538 4550 2338 
Q 4550 1131 3912 565 
Q 3275 0 1925 0 
L 628 0 
L 628 4666 
z
" transform="scale(0.015625)"/>
      </defs>
      <use xlink:href="#DejaVuSans-50"/>
      <use xlink:href="#DejaVuSans-45" transform="translate(60.302734 0)"/>
      <use xlink:href="#DejaVuSans-41" transform="translate(123.486328 0)"/>
      <use xlink:href="#DejaVuSans-4b" transform="translate(191.894531 0)"/>
      <use xlink:href="#DejaVuSans-45" transform="translate(257.470703 0)"/>
      <use xlink:href="#DejaVuSans-44" transform="translate(320.654297 0)"/>
     </g>
    </g>
    <g id="line2d_35">
     <path d="M 245.71875 60.754406 
L 254.71875 60.754406 
L 263.71875 60.754406 
" style="fill: none; stroke: #3498db; stroke-width: 2; stroke-linecap: square"/>
     <g>
      <use xlink:href="#m03f4c7e7e8" x="254.71875" y="60.754406" style="fill: #3498db; stroke: #3498db"/>
     </g>
    </g>
    <g id="text_19">
     <!-- UNIFORM -->
     <g transform="translate(270.91875 63.904406) scale(0.09 -0.09)">
      <defs>
       <path id="DejaVuSans-55" d="M 556 4666 
L 1191 4666 
L 1191 1831 
Q 1191 1081 1462 751 
Q 1734 422 2344 422 
Q 2950 422 3222 751 
Q 3494 1081 3494 1831 
L 3494 4666 
L 4128 4666 
L 4128 1753 
Q 4128 841 3676 375 
Q 3225 -91 2344 -91 
Q 1459 -91 1007 375 
Q 556 841 556 1753 
L 556 4666 
z
" transform="scale(0.015625)"/>
       <path id="DejaVuSans-4e" d="M 628 4666 
L 1478 4666 
L 3547 763 
L 3547 4666 
L 4159 4666 
L 4159 0 
L 3309 0 
L 1241 3903 
L 1241 0 
L 628 0 
L 628 4666 
z
" transform="scale(0.015625)"/>
       <path id="DejaVuSans-49" d="M 628 4666 
L 1259 4666 
L 1259 0 
L 628 0 
L 628 4666 
z
" transform="scale(0.015625)"/>
       <path id="DejaVuSans-46" d="M 628 4666 
L 3309 4666 
L 3309 4134 
L 1259 4134 
L 1259 2759 
L 3109 2759 
L 3109 2228 
L 1259 2228 
L 1259 0 
L 628 0 
L 628 4666 
z
" transform="scale(0.015625)"/>
       <path id="DejaVuSans-4f" d="M 2522 4238 
Q 1834 4238 1429 3725 
Q 1025 3213 1025 2328 
Q 1025 1447 1429 934 
Q 1834 422 2522 422 
Q 3209 422 3611 934 
Q 4013 1447 4013 2328 
Q 4013 3213 3611 3725 
Q 3209 4238 2522 4238 
z
M 2522 4750 
Q 3503 4750 4090 4092 
Q 4678 3434 4678 2328 
Q 4678 1225 4090 567 
Q 3503 -91 2522 -91 
Q 1538 -91 948 565 
Q 359 1222 359 2328 
Q 359 3434 948 4092 
Q 1538 4750 2522 4750 
z
" transform="scale(0.015625)"/>
       <path id="DejaVuSans-4d" d="M 628 4666 
L 1569 4666 
L 2759 1491 
L 3956 4666 
L 4897 4666 
L 4897 0 
L 4281 0 
L 4281 4097 
L 3078 897 
L 2444 897 
L 1241 4097 
L 1241 0 
L 628 0 
L 628 4666 
z
" transform="scale(0.015625)"/>
      </defs>
      <use xlink:href="#DejaVuSans-55"/>
      <use xlink:href="#DejaVuSans-4e" transform="translate(73.193359 0)"/>
      <use xlink:href="#DejaVuSans-49" transform="translate(147.998047 0)"/>
      <use xlink:href="#DejaVuSans-46" transform="translate(177.490234 0)"/>
      <use xlink:href="#DejaVuSans-4f" transform="translate(235.009766 0)"/>
      <use xlink:href="#DejaVuSans-52" transform="translate(313.720703 0)"/>
      <use xlink:href="#DejaVuSans-4d" transform="translate(383.203125 0)"/>
     </g>
    </g>
    <g id="line2d_36">
     <path d="M 245.71875 73.964719 
L 254.71875 73.964719 
L 263.71875 73.964719 
" style="fill: none; stroke: #2ecc71; stroke-width: 2; stroke-linecap: square"/>
     <g>
      <use xlink:href="#ma8025a6a89" x="254.71875" y="73.964719" style="fill: #2ecc71; stroke: #2ecc71"/>
     </g>
    </g>
    <g id="text_20">
     <!-- RANDOM -->
     <g transform="translate(270.91875 77.114719) scale(0.09 -0.09)">
      <use xlink:href="#DejaVuSans-52"/>
      <use xlink:href="#DejaVuSans-41" transform="translate(65.482422 0)"/>
      <use xlink:href="#DejaVuSans-4e" transform="translate(133.890625 0)"/>
      <use xlink:href="#DejaVuSans-44" transform="translate(208.695312 0)"/>
      <use xlink:href="#DejaVuSans-4f" transform="translate(285.697266 0)"/>
      <use xlink:href="#DejaVuSans-4d" transform="translate(364.408203 0)"/>
     </g>
    </g>
    <g id="line2d_37">
     <path d="M 245.71875 87.175031 
L 254.71875 87.175031 
L 263.71875 87.175031 
" style="fill: none; stroke-dasharray: 5.55,2.4; stroke-dashoffset: 0; stroke: #808080; stroke-width: 1.5"/>
    </g>
    <g id="text_21">
     <!-- Target (3.0) -->
     <g transform="translate(270.91875 90.325031) scale(0.09 -0.09)">
      <defs>
       <path id="DejaVuSans-67" d="M 2906 1791 
Q 2906 2416 2648 2759 
Q 2391 3103 1925 3103 
Q 1463 3103 1205 2759 
Q 947 2416 947 1791 
Q 947 1169 1205 825 
Q 1463 481 1925 481 
Q 2391 481 2648 825 
Q 2906 1169 2906 1791 
z
M 3481 434 
Q 3481 -459 3084 -895 
Q 2688 -1331 1869 -1331 
Q 1566 -1331 1297 -1286 
Q 1028 -1241 775 -1147 
L 775 -588 
Q 1028 -725 1275 -790 
Q 1522 -856 1778 -856 
Q 2344 -856 2625 -561 
Q 2906 -266 2906 331 
L 2906 616 
Q 2728 306 2450 153 
Q 2172 0 1784 0 
Q 1141 0 747 490 
Q 353 981 353 1791 
Q 353 2603 747 3093 
Q 1141 3584 1784 3584 
Q 2172 3584 2450 3431 
Q 2728 3278 2906 2969 
L 2906 3500 
L 3481 3500 
L 3481 434 
z
" transform="scale(0.015625)"/>
      </defs>
      <use xlink:href="#DejaVuSans-54"/>
      <use xlink:href="#DejaVuSans-61" transform="translate(44.583984 0)"/>
      <use xlink:href="#DejaVuSans-72" transform="translate(105.863281 0)"/>
      <use xlink:href="#DejaVuSans-67" transform="translate(145.226562 0)"/>
      <use xlink:href="#DejaVuSans-65" transform="translate(208.703125 0)"/>
      <use xlink:href="#DejaVuSans-74" transform="translate(270.226562 0)"/>
      <use xlink:href="#DejaVuSans-20" transform="translate(309.435547 0)"/>
      <use xlink:href="#DejaVuSans-28" transform="translate(341.222656 0)"/>
      <use xlink:href="#DejaVuSans-33" transform="translate(380.236328 0)"/>
      <use xlink:href="#DejaVuSans-2e" transform="translate(443.859375 0)"/>
      <use xlink:href="#DejaVuSans-30" transform="translate(475.646484 0)"/>
      <use xlink:href="#DejaVuSans-29" transform="translate(539.269531 0)"/>
     </g>
    </g>
    <g id="line2d_38">
     <path d="M 245.71875 100.385344 
L 254.71875 100.385344 
L 263.71875 100.385344 
" style="fill: none; stroke-dasharray: 1,1.65; stroke-dashoffset: 0; stroke: #000000"/>
    </g>
    <g id="text_22">
     <!-- Max (5.55) -->
     <g transform="translate(270.91875 103.535344) scale(0.09 -0.09)">
      <defs>
       <path id="DejaVuSans-78" d="M 3513 3500 
L 2247 1797 
L 3578 0 
L 2900 0 
L 1881 1375 
L 863 0 
L 184 0 
L 1544 1831 
L 300 3500 
L 978 3500 
L 1906 2253 
L 2834 3500 
L 3513 3500 
z
" transform="scale(0.015625)"/>
      </defs>
      <use xlink:href="#DejaVuSans-4d"/>
      <use xlink:href="#DejaVuSans-61" transform="translate(86.279297 0)"/>
      <use xlink:href="#DejaVuSans-78" transform="translate(147.558594 0)"/>
      <use xlink:href="#DejaVuSans-20" transform="translate(206.738281 0)"/>
      <use xlink:href="#DejaVuSans-28" transform="translate(238.525391 0)"/>
      <use xlink:href="#DejaVuSans-35" transform="translate(277.539062 0)"/>
      <use xlink:href="#DejaVuSans-2e" transform="translate(341.162109 0)"/>
      <use xlink:href="#DejaVuSans-35" transform="translate(372.949219 0)"/>
      <use xlink:href="#DejaVuSans-35" transform="translate(436.572266 0)"/>
      <use xlink:href="#DejaVuSans-29" transform="translate(500.195312 0)"/>
     </g>
    </g>
   </g>
  </g>
  <g id="axes_2">
   <g id="patch_8">
    <path d="M 376.084063 241.5235 
L 662.399063 241.5235 
L 662.399063 35.7555 
L 376.084063 35.7555 
z
" style="fill: #ffffff"/>
   </g>
   <g id="patch_9">
    <path d="M 389.098381 241.5235 
L 463.465913 241.5235 
L 463.465913 80.181219 
L 389.098381 80.181219 
z
" clip-path="url(#pb3846dc722)" style="fill: #e74c3c; stroke: #000000; stroke-width: 1.5; stroke-linejoin: miter"/>
   </g>
   <g id="patch_10">
    <path d="M 482.057796 241.5235 
L 556.425329 241.5235 
L 556.425329 81.383715 
L 482.057796 81.383715 
z
" clip-path="url(#pb3846dc722)" style="fill: #3498db; stroke: #000000; stroke-width: 1.5; stroke-linejoin: miter"/>
   </g>
   <g id="patch_11">
    <path d="M 575.017212 241.5235 
L 649.384744 241.5235 
L 649.384744 81.407549 
L 575.017212 81.407549 
z
" clip-path="url(#pb3846dc722)" style="fill: #2ecc71; stroke: #000000; stroke-width: 1.5; stroke-linejoin: miter"/>
   </g>
   <g id="matplotlib.axis_3">
    <g id="xtick_7">
     <g id="line2d_39">
      <g>
       <use xlink:href="#m8380fe4e4f" x="426.282147" y="241.5235" style="stroke: #000000; stroke-width: 0.8"/>
      </g>
     </g>
     <g id="text_23">
      <!-- PEAKED -->
      <g transform="translate(406.399334 256.121938) scale(0.1 -0.1)">
       <use xlink:href="#DejaVuSans-50"/>
       <use xlink:href="#DejaVuSans-45" transform="translate(60.302734 0)"/>
       <use xlink:href="#DejaVuSans-41" transform="translate(123.486328 0)"/>
       <use xlink:href="#DejaVuSans-4b" transform="translate(191.894531 0)"/>
       <use xlink:href="#DejaVuSans-45" transform="translate(257.470703 0)"/>
       <use xlink:href="#DejaVuSans-44" transform="translate(320.654297 0)"/>
      </g>
     </g>
    </g>
    <g id="xtick_8">
     <g id="line2d_40">
      <g>
       <use xlink:href="#m8380fe4e4f" x="519.241562" y="241.5235" style="stroke: #000000; stroke-width: 0.8"/>
      </g>
     </g>
     <g id="text_24">
      <!-- UNIFORM -->
      <g transform="translate(495.766562 256.121938) scale(0.1 -0.1)">
       <use xlink:href="#DejaVuSans-55"/>
       <use xlink:href="#DejaVuSans-4e" transform="translate(73.193359 0)"/>
       <use xlink:href="#DejaVuSans-49" transform="translate(147.998047 0)"/>
       <use xlink:href="#DejaVuSans-46" transform="translate(177.490234 0)"/>
       <use xlink:href="#DejaVuSans-4f" transform="translate(235.009766 0)"/>
       <use xlink:href="#DejaVuSans-52" transform="translate(313.720703 0)"/>
       <use xlink:href="#DejaVuSans-4d" transform="translate(383.203125 0)"/>
      </g>
     </g>
    </g>
    <g id="xtick_9">
     <g id="line2d_41">
      <g>
       <use xlink:href="#m8380fe4e4f" x="612.200978" y="241.5235" style="stroke: #000000; stroke-width: 0.8"/>
      </g>
     </g>
     <g id="text_25">
      <!-- RANDOM -->
      <g transform="translate(589.665822 256.121938) scale(0.1 -0.1)">
       <use xlink:href="#DejaVuSans-52"/>
       <use xlink:href="#DejaVuSans-41" transform="translate(65.482422 0)"/>
       <use xlink:href="#DejaVuSans-4e" transform="translate(133.890625 0)"/>
       <use xlink:href="#DejaVuSans-44" transform="translate(208.695312 0)"/>
       <use xlink:href="#DejaVuSans-4f" transform="translate(285.697266 0)"/>
       <use xlink:href="#DejaVuSans-4d" transform="translate(364.408203 0)"/>
      </g>
     </g>
    </g>
   </g>
   <g id="matplotlib.axis_4">
    <g id="ytick_9">
     <g id="line2d_42">
      <path d="M 376.084063 241.5235 
L 662.399063 241.5235 
" clip-path="url(#pb3846dc722)" style="fill: none; stroke: #b0b0b0; stroke-opacity: 0.3; stroke-width: 0.8; stroke-linecap: square"/>
     </g>
     <g id="line2d_43">
      <g>
       <use xlink:href="#m6ac30384d2" x="376.084063" y="241.5235" style="stroke: #000000; stroke-width: 0.8"/>
      </g>
     </g>
     <g id="text_26">
      <!-- 0 -->
      <g transform="translate(362.721563 245.322719) scale(0.1 -0.1)">
       <use xlink:href="#DejaVuSans-30"/>
      </g>
     </g>
    </g>
    <g id="ytick_10">
     <g id="line2d_44">
      <path d="M 376.084063 204.111136 
L 662.399063 204.111136 
" clip-path="url(#pb3846dc722)" style="fill: none; stroke: #b0b0b0; stroke-opacity: 0.3; stroke-width: 0.8; stroke-linecap: square"/>
     </g>
     <g id="line2d_45">
      <g>
       <use xlink:href="#m6ac30384d2" x="376.084063" y="204.111136" style="stroke: #000000; stroke-width: 0.8"/>
      </g>
     </g>
     <g id="text_27">
      <!-- 1 -->
      <g transform="translate(362.721563 207.910355) scale(0.1 -0.1)">
       <use xlink:href="#DejaVuSans-31"/>
      </g>
     </g>
    </g>
    <g id="ytick_11">
     <g id="line2d_46">
      <path d="M 376.084063 166.698773 
L 662.399063 166.698773 
" clip-path="url(#pb3846dc722)" style="fill: none; stroke: #b0b0b0; stroke-opacity: 0.3; stroke-width: 0.8; stroke-linecap: square"/>
     </g>
     <g id="line2d_47">
      <g>
       <use xlink:href="#m6ac30384d2" x="376.084063" y="166.698773" style="stroke: #000000; stroke-width: 0.8"/>
      </g>
     </g>
     <g id="text_28">
      <!-- 2 -->
      <g transform="translate(362.721563 170.497991) scale(0.1 -0.1)">
       <use xlink:href="#DejaVuSans-32"/>
      </g>
     </g>
    </g>
    <g id="ytick_12">
     <g id="line2d_48">
      <path d="M 376.084063 129.286409 
L 662.399063 129.286409 
" clip-path="url(#pb3846dc722)" style="fill: none; stroke: #b0b0b0; stroke-opacity: 0.3; stroke-width: 0.8; stroke-linecap: square"/>
     </g>
     <g id="line2d_49">
      <g>
       <use xlink:href="#m6ac30384d2" x="376.084063" y="129.286409" style="stroke: #000000; stroke-width: 0.8"/>
      </g>
     </g>
     <g id="text_29">
      <!-- 3 -->
      <g transform="translate(362.721563 133.085628) scale(0.1 -0.1)">
       <use xlink:href="#DejaVuSans-33"/>
      </g>
     </g>
    </g>
    <g id="ytick_13">
     <g id="line2d_50">
      <path d="M 376.084063 91.874045 
L 662.399063 91.874045 
" clip-path="url(#pb3846dc722)" style="fill: none; stroke: #b0b0b0; stroke-opacity: 0.3; stroke-width: 0.8; stroke-linecap: square"/>
     </g>
     <g id="line2d_51">
      <g>
       <use xlink:href="#m6ac30384d2" x="376.084063" y="91.874045" style="stroke: #000000; stroke-width: 0.8"/>
      </g>
     </g>
     <g id="text_30">
      <!-- 4 -->
      <g transform="translate(362.721563 95.673264) scale(0.1 -0.1)">
       <use xlink:href="#DejaVuSans-34"/>
      </g>
     </g>
    </g>
    <g id="ytick_14">
     <g id="line2d_52">
      <path d="M 376.084063 54.461682 
L 662.399063 54.461682 
" clip-path="url(#pb3846dc722)" style="fill: none; stroke: #b0b0b0; stroke-opacity: 0.3; stroke-width: 0.8; stroke-linecap: square"/>
     </g>
     <g id="line2d_53">
      <g>
       <use xlink:href="#m6ac30384d2" x="376.084063" y="54.461682" style="stroke: #000000; stroke-width: 0.8"/>
      </g>
     </g>
     <g id="text_31">
      <!-- 5 -->
      <g transform="translate(362.721563 58.260901) scale(0.1 -0.1)">
       <use xlink:href="#DejaVuSans-35"/>
      </g>
     </g>
    </g>
    <g id="text_32">
     <!-- Output Entropy (nats) -->
     <g transform="translate(356.433906 198.775984) rotate(-90) scale(0.11 -0.11)">
      <defs>
       <path id="DejaVuSans-75" d="M 544 1381 
L 544 3500 
L 1119 3500 
L 1119 1403 
Q 1119 906 1312 657 
Q 1506 409 1894 409 
Q 2359 409 2629 706 
Q 2900 1003 2900 1516 
L 2900 3500 
L 3475 3500 
L 3475 0 
L 2900 0 
L 2900 538 
Q 2691 219 2414 64 
Q 2138 -91 1772 -91 
Q 1169 -91 856 284 
Q 544 659 544 1381 
z
M 1991 3584 
L 1991 3584 
z
" transform="scale(0.015625)"/>
      </defs>
      <use xlink:href="#DejaVuSans-4f"/>
      <use xlink:href="#DejaVuSans-75" transform="translate(78.710938 0)"/>
      <use xlink:href="#DejaVuSans-74" transform="translate(142.089844 0)"/>
      <use xlink:href="#DejaVuSans-70" transform="translate(181.298828 0)"/>
      <use xlink:href="#DejaVuSans-75" transform="translate(244.775391 0)"/>
      <use xlink:href="#DejaVuSans-74" transform="translate(308.154297 0)"/>
      <use xlink:href="#DejaVuSans-20" transform="translate(347.363281 0)"/>
      <use xlink:href="#DejaVuSans-45" transform="translate(379.150391 0)"/>
      <use xlink:href="#DejaVuSans-6e" transform="translate(442.333984 0)"/>
      <use xlink:href="#DejaVuSans-74" transform="translate(505.712891 0)"/>
      <use xlink:href="#DejaVuSans-72" transform="translate(544.921875 0)"/>
      <use xlink:href="#DejaVuSans-6f" transform="translate(583.785156 0)"/>
      <use xlink:href="#DejaVuSans-70" transform="translate(644.966797 0)"/>
      <use xlink:href="#DejaVuSans-79" transform="translate(708.443359 0)"/>
      <use xlink:href="#DejaVuSans-20" transform="translate(767.623047 0)"/>
      <use xlink:href="#DejaVuSans-28" transform="translate(799.410156 0)"/>
      <use xlink:href="#DejaVuSans-6e" transform="translate(838.423828 0)"/>
      <use xlink:href="#DejaVuSans-61" transform="translate(901.802734 0)"/>
      <use xlink:href="#DejaVuSans-74" transform="translate(963.082031 0)"/>
      <use xlink:href="#DejaVuSans-73" transform="translate(1002.291016 0)"/>
      <use xlink:href="#DejaVuSans-29" transform="translate(1054.390625 0)"/>
     </g>
    </g>
   </g>
   <g id="line2d_54">
    <path d="M 376.084063 59.997579 
L 662.399063 59.997579 
" clip-path="url(#pb3846dc722)" style="fill: none; stroke-dasharray: 1.5,2.475; stroke-dashoffset: 0; stroke: #000000; stroke-width: 1.5"/>
   </g>
   <g id="line2d_55">
    <path d="M 376.084063 129.286409 
L 662.399063 129.286409 
" clip-path="url(#pb3846dc722)" style="fill: none; stroke-dasharray: 5.55,2.4; stroke-dashoffset: 0; stroke: #808080; stroke-width: 1.5"/>
   </g>
   <g id="patch_12">
    <path d="M 376.084063 241.5235 
L 376.084063 35.7555 
" style="fill: none; stroke: #000000; stroke-width: 0.8; stroke-linejoin: miter; stroke-linecap: square"/>
   </g>
   <g id="patch_13">
    <path d="M 662.399063 241.5235 
L 662.399063 35.7555 
" style="fill: none; stroke: #000000; stroke-width: 0.8; stroke-linejoin: miter; stroke-linecap: square"/>
   </g>
   <g id="patch_14">
    <path d="M 376.084063 241.5235 
L 662.399063 241.5235 
" style="fill: none; stroke: #000000; stroke-width: 0.8; stroke-linejoin: miter; stroke-linecap: square"/>
   </g>
   <g id="patch_15">
    <path d="M 376.084063 35.7555 
L 662.399063 35.7555 
" style="fill: none; stroke: #000000; stroke-width: 0.8; stroke-linejoin: miter; stroke-linecap: square"/>
   </g>
   <g id="text_33">
    <!-- B. Output Entropy by Input Type -->
    <g transform="translate(422.857188 29.7555) scale(0.12 -0.12)">
     <defs>
      <path id="DejaVuSans-42" d="M 1259 2228 
L 1259 519 
L 2272 519 
Q 2781 519 3026 730 
Q 3272 941 3272 1375 
Q 3272 1813 3026 2020 
Q 2781 2228 2272 2228 
L 1259 2228 
z
M 1259 4147 
L 1259 2741 
L 2194 2741 
Q 2656 2741 2882 2914 
Q 3109 3088 3109 3444 
Q 3109 3797 2882 3972 
Q 2656 4147 2194 4147 
L 1259 4147 
z
M 628 4666 
L 2241 4666 
Q 2963 4666 3353 4366 
Q 3744 4066 3744 3513 
Q 3744 3084 3544 2831 
Q 3344 2578 2956 2516 
Q 3422 2416 3680 2098 
Q 3938 1781 3938 1306 
Q 3938 681 3513 340 
Q 3088 0 2303 0 
L 628 0 
L 628 4666 
z
" transform="scale(0.015625)"/>
      <path id="DejaVuSans-62" d="M 3116 1747 
Q 3116 2381 2855 2742 
Q 2594 3103 2138 3103 
Q 1681 3103 1420 2742 
Q 1159 2381 1159 1747 
Q 1159 1113 1420 752 
Q 1681 391 2138 391 
Q 2594 391 2855 752 
Q 3116 1113 3116 1747 
z
M 1159 2969 
Q 1341 3281 1617 3432 
Q 1894 3584 2278 3584 
Q 2916 3584 3314 3078 
Q 3713 2572 3713 1747 
Q 3713 922 3314 415 
Q 2916 -91 2278 -91 
Q 1894 -91 1617 61 
Q 1341 213 1159 525 
L 1159 0 
L 581 0 
L 581 4863 
L 1159 4863 
L 1159 2969 
z
" transform="scale(0.015625)"/>
     </defs>
     <use xlink:href="#DejaVuSans-42"/>
     <use xlink:href="#DejaVuSans-2e" transform="translate(68.603516 0)"/>
     <use xlink:href="#DejaVuSans-20" transform="translate(100.390625 0)"/>
     <use xlink:href="#DejaVuSans-4f" transform="translate(132.177734 0)"/>
     <use xlink:href="#DejaVuSans-75" transform="translate(210.888672 0)"/>
     <use xlink:href="#DejaVuSans-74" transform="translate(274.267578 0)"/>
     <use xlink:href="#DejaVuSans-70" transform="translate(313.476562 0)"/>
     <use xlink:href="#DejaVuSans-75" transform="translate(376.953125 0)"/>
     <use xlink:href="#DejaVuSans-74" transform="translate(440.332031 0)"/>
     <use xlink:href="#DejaVuSans-20" transform="translate(479.541016 0)"/>
     <use xlink:href="#DejaVuSans-45" transform="translate(511.328125 0)"/>
     <use xlink:href="#DejaVuSans-6e" transform="translate(574.511719 0)"/>
     <use xlink:href="#DejaVuSans-74" transform="translate(637.890625 0)"/>
     <use xlink:href="#DejaVuSans-72" transform="translate(677.099609 0)"/>
     <use xlink:href="#DejaVuSans-6f" transform="translate(715.962891 0)"/>
     <use xlink:href="#DejaVuSans-70" transform="translate(777.144531 0)"/>
     <use xlink:href="#DejaVuSans-79" transform="translate(840.621094 0)"/>
     <use xlink:href="#DejaVuSans-20" transform="translate(899.800781 0)"/>
     <use xlink:href="#DejaVuSans-62" transform="translate(931.587891 0)"/>
     <use xlink:href="#DejaVuSans-79" transform="translate(995.064453 0)"/>
     <use xlink:href="#DejaVuSans-20" transform="translate(1054.244141 0)"/>
     <use xlink:href="#DejaVuSans-49" transform="translate(1086.03125 0)"/>
     <use xlink:href="#DejaVuSans-6e" transform="translate(1115.523438 0)"/>
     <use xlink:href="#DejaVuSans-70" transform="translate(1178.902344 0)"/>
     <use xlink:href="#DejaVuSans-75" transform="translate(1242.378906 0)"/>
     <use xlink:href="#DejaVuSans-74" transform="translate(1305.757812 0)"/>
     <use xlink:href="#DejaVuSans-20" transform="translate(1344.966797 0)"/>
     <use xlink:href="#DejaVuSans-54" transform="translate(1376.753906 0)"/>
     <use xlink:href="#DejaVuSans-79" transform="translate(1422.212891 0)"/>
     <use xlink:href="#DejaVuSans-70" transform="translate(1481.392578 0)"/>
     <use xlink:href="#DejaVuSans-65" transform="translate(1544.869141 0)"/>
    </g>
   </g>
   <g id="legend_2">
    <g id="patch_16">
     <path d="M 575.25375 69.376125 
L 656.099063 69.376125 
Q 657.899063 69.376125 657.899063 67.576125 
L 657.899063 42.0555 
Q 657.899063 40.2555 656.099063 40.2555 
L 575.25375 40.2555 
Q 573.45375 40.2555 573.45375 42.0555 
L 573.45375 67.576125 
Q 573.45375 69.376125 575.25375 69.376125 
z
" style="fill: #ffffff; opacity: 0.8; stroke: #cccccc; stroke-linejoin: miter"/>
    </g>
    <g id="line2d_56">
     <path d="M 577.05375 47.544094 
L 586.05375 47.544094 
L 595.05375 47.544094 
" style="fill: none; stroke-dasharray: 1.5,2.475; stroke-dashoffset: 0; stroke: #000000; stroke-width: 1.5"/>
    </g>
    <g id="text_34">
     <!-- Max (4.85) -->
     <g transform="translate(602.25375 50.694094) scale(0.09 -0.09)">
      <defs>
       <path id="DejaVuSans-38" d="M 2034 2216 
Q 1584 2216 1326 1975 
Q 1069 1734 1069 1313 
Q 1069 891 1326 650 
Q 1584 409 2034 409 
Q 2484 409 2743 651 
Q 3003 894 3003 1313 
Q 3003 1734 2745 1975 
Q 2488 2216 2034 2216 
z
M 1403 2484 
Q 997 2584 770 2862 
Q 544 3141 544 3541 
Q 544 4100 942 4425 
Q 1341 4750 2034 4750 
Q 2731 4750 3128 4425 
Q 3525 4100 3525 3541 
Q 3525 3141 3298 2862 
Q 3072 2584 2669 2484 
Q 3125 2378 3379 2068 
Q 3634 1759 3634 1313 
Q 3634 634 3220 271 
Q 2806 -91 2034 -91 
Q 1263 -91 848 271 
Q 434 634 434 1313 
Q 434 1759 690 2068 
Q 947 2378 1403 2484 
z
M 1172 3481 
Q 1172 3119 1398 2916 
Q 1625 2713 2034 2713 
Q 2441 2713 2670 2916 
Q 2900 3119 2900 3481 
Q 2900 3844 2670 4047 
Q 2441 4250 2034 4250 
Q 1625 4250 1398 4047 
Q 1172 3844 1172 3481 
z
" transform="scale(0.015625)"/>
      </defs>
      <use xlink:href="#DejaVuSans-4d"/>
      <use xlink:href="#DejaVuSans-61" transform="translate(86.279297 0)"/>
      <use xlink:href="#DejaVuSans-78" transform="translate(147.558594 0)"/>
      <use xlink:href="#DejaVuSans-20" transform="translate(206.738281 0)"/>
      <use xlink:href="#DejaVuSans-28" transform="translate(238.525391 0)"/>
      <use xlink:href="#DejaVuSans-34" transform="translate(277.539062 0)"/>
      <use xlink:href="#DejaVuSans-2e" transform="translate(341.162109 0)"/>
      <use xlink:href="#DejaVuSans-38" transform="translate(372.949219 0)"/>
      <use xlink:href="#DejaVuSans-35" transform="translate(436.572266 0)"/>
      <use xlink:href="#DejaVuSans-29" transform="translate(500.195312 0)"/>
     </g>
    </g>
    <g id="line2d_57">
     <path d="M 577.05375 60.754406 
L 586.05375 60.754406 
L 595.05375 60.754406 
" style="fill: none; stroke-dasharray: 5.55,2.4; stroke-dashoffset: 0; stroke: #808080; stroke-width: 1.5"/>
    </g>
    <g id="text_35">
     <!-- Target (3.0) -->
     <g transform="translate(602.25375 63.904406) scale(0.09 -0.09)">
      <use xlink:href="#DejaVuSans-54"/>
      <use xlink:href="#DejaVuSans-61" transform="translate(44.583984 0)"/>
      <use xlink:href="#DejaVuSans-72" transform="translate(105.863281 0)"/>
      <use xlink:href="#DejaVuSans-67" transform="translate(145.226562 0)"/>
      <use xlink:href="#DejaVuSans-65" transform="translate(208.703125 0)"/>
      <use xlink:href="#DejaVuSans-74" transform="translate(270.226562 0)"/>
      <use xlink:href="#DejaVuSans-20" transform="translate(309.435547 0)"/>
      <use xlink:href="#DejaVuSans-28" transform="translate(341.222656 0)"/>
      <use xlink:href="#DejaVuSans-33" transform="translate(380.236328 0)"/>
      <use xlink:href="#DejaVuSans-2e" transform="translate(443.859375 0)"/>
      <use xlink:href="#DejaVuSans-30" transform="translate(475.646484 0)"/>
      <use xlink:href="#DejaVuSans-29" transform="translate(539.269531 0)"/>
     </g>
    </g>
   </g>
  </g>
  <g id="axes_3">
   <g id="patch_17">
    <path d="M 707.419062 241.5235 
L 993.734062 241.5235 
L 993.734062 35.7555 
L 707.419062 35.7555 
z
" style="fill: #ffffff"/>
   </g>
   <g id="patch_18">
    <path d="M 720.433381 241.5235 
L 754.174206 241.5235 
L 754.174206 71.030014 
L 720.433381 71.030014 
z
" clip-path="url(#p40a4c447f2)" style="fill: #9b59b6; stroke: #000000; stroke-linejoin: miter"/>
   </g>
   <g id="patch_19">
    <path d="M 816.835738 241.5235 
L 850.576562 241.5235 
L 850.576562 65.150929 
L 816.835738 65.150929 
z
" clip-path="url(#p40a4c447f2)" style="fill: #9b59b6; stroke: #000000; stroke-linejoin: miter"/>
   </g>
   <g id="patch_20">
    <path d="M 913.238094 241.5235 
L 946.978919 241.5235 
L 946.978919 65.150929 
L 913.238094 65.150929 
z
" clip-path="url(#p40a4c447f2)" style="fill: #9b59b6; stroke: #000000; stroke-linejoin: miter"/>
   </g>
   <g id="patch_21">
    <path d="M 754.174206 241.5235 
L 787.915031 241.5235 
L 787.915031 238.583957 
L 754.174206 238.583957 
z
" clip-path="url(#p40a4c447f2)" style="fill: #f39c12; stroke: #000000; stroke-linejoin: miter"/>
   </g>
   <g id="patch_22">
    <path d="M 850.576562 241.5235 
L 884.317387 241.5235 
L 884.317387 241.5235 
L 850.576562 241.5235 
z
" clip-path="url(#p40a4c447f2)" style="fill: #f39c12; stroke: #000000; stroke-linejoin: miter"/>
   </g>
   <g id="patch_23">
    <path d="M 946.978919 241.5235 
L 980.719744 241.5235 
L 980.719744 241.5235 
L 946.978919 241.5235 
z
" clip-path="url(#p40a4c447f2)" style="fill: #f39c12; stroke: #000000; stroke-linejoin: miter"/>
   </g>
   <g id="matplotlib.axis_5">
    <g id="xtick_10">
     <g id="line2d_58">
      <g>
       <use xlink:href="#m8380fe4e4f" x="754.174206" y="241.5235" style="stroke: #000000; stroke-width: 0.8"/>
      </g>
     </g>
     <g id="text_36">
      <!-- PEAKED -->
      <g transform="translate(734.291393 256.121938) scale(0.1 -0.1)">
       <use xlink:href="#DejaVuSans-50"/>
       <use xlink:href="#DejaVuSans-45" transform="translate(60.302734 0)"/>
       <use xlink:href="#DejaVuSans-41" transform="translate(123.486328 0)"/>
       <use xlink:href="#DejaVuSans-4b" transform="translate(191.894531 0)"/>
       <use xlink:href="#DejaVuSans-45" transform="translate(257.470703 0)"/>
       <use xlink:href="#DejaVuSans-44" transform="translate(320.654297 0)"/>
      </g>
     </g>
    </g>
    <g id="xtick_11">
     <g id="line2d_59">
      <g>
       <use xlink:href="#m8380fe4e4f" x="850.576562" y="241.5235" style="stroke: #000000; stroke-width: 0.8"/>
      </g>
     </g>
     <g id="text_37">
      <!-- UNIFORM -->
      <g transform="translate(827.101562 256.121938) scale(0.1 -0.1)">
       <use xlink:href="#DejaVuSans-55"/>
       <use xlink:href="#DejaVuSans-4e" transform="translate(73.193359 0)"/>
       <use xlink:href="#DejaVuSans-49" transform="translate(147.998047 0)"/>
       <use xlink:href="#DejaVuSans-46" transform="translate(177.490234 0)"/>
       <use xlink:href="#DejaVuSans-4f" transform="translate(235.009766 0)"/>
       <use xlink:href="#DejaVuSans-52" transform="translate(313.720703 0)"/>
       <use xlink:href="#DejaVuSans-4d" transform="translate(383.203125 0)"/>
      </g>
     </g>
    </g>
    <g id="xtick_12">
     <g id="line2d_60">
      <g>
       <use xlink:href="#m8380fe4e4f" x="946.978919" y="241.5235" style="stroke: #000000; stroke-width: 0.8"/>
      </g>
     </g>
     <g id="text_38">
      <!-- RANDOM -->
      <g transform="translate(924.443763 256.121938) scale(0.1 -0.1)">
       <use xlink:href="#DejaVuSans-52"/>
       <use xlink:href="#DejaVuSans-41" transform="translate(65.482422 0)"/>
       <use xlink:href="#DejaVuSans-4e" transform="translate(133.890625 0)"/>
       <use xlink:href="#DejaVuSans-44" transform="translate(208.695312 0)"/>
       <use xlink:href="#DejaVuSans-4f" transform="translate(285.697266 0)"/>
       <use xlink:href="#DejaVuSans-4d" transform="translate(364.408203 0)"/>
      </g>
     </g>
    </g>
   </g>
   <g id="matplotlib.axis_6">
    <g id="ytick_15">
     <g id="line2d_61">
      <path d="M 707.419062 241.5235 
L 993.734062 241.5235 
" clip-path="url(#p40a4c447f2)" style="fill: none; stroke: #b0b0b0; stroke-opacity: 0.3; stroke-width: 0.8; stroke-linecap: square"/>
     </g>
     <g id="line2d_62">
      <g>
       <use xlink:href="#m6ac30384d2" x="707.419062" y="241.5235" style="stroke: #000000; stroke-width: 0.8"/>
      </g>
     </g>
     <g id="text_39">
      <!-- 0 -->
      <g transform="translate(694.056562 245.322719) scale(0.1 -0.1)">
       <use xlink:href="#DejaVuSans-30"/>
      </g>
     </g>
    </g>
    <g id="ytick_16">
     <g id="line2d_63">
      <path d="M 707.419062 212.128071 
L 993.734062 212.128071 
" clip-path="url(#p40a4c447f2)" style="fill: none; stroke: #b0b0b0; stroke-opacity: 0.3; stroke-width: 0.8; stroke-linecap: square"/>
     </g>
     <g id="line2d_64">
      <g>
       <use xlink:href="#m6ac30384d2" x="707.419062" y="212.128071" style="stroke: #000000; stroke-width: 0.8"/>
      </g>
     </g>
     <g id="text_40">
      <!-- 10 -->
      <g transform="translate(687.694062 215.92729) scale(0.1 -0.1)">
       <use xlink:href="#DejaVuSans-31"/>
       <use xlink:href="#DejaVuSans-30" transform="translate(63.623047 0)"/>
      </g>
     </g>
    </g>
    <g id="ytick_17">
     <g id="line2d_65">
      <path d="M 707.419062 182.732643 
L 993.734062 182.732643 
" clip-path="url(#p40a4c447f2)" style="fill: none; stroke: #b0b0b0; stroke-opacity: 0.3; stroke-width: 0.8; stroke-linecap: square"/>
     </g>
     <g id="line2d_66">
      <g>
       <use xlink:href="#m6ac30384d2" x="707.419062" y="182.732643" style="stroke: #000000; stroke-width: 0.8"/>
      </g>
     </g>
     <g id="text_41">
      <!-- 20 -->
      <g transform="translate(687.694062 186.531862) scale(0.1 -0.1)">
       <use xlink:href="#DejaVuSans-32"/>
       <use xlink:href="#DejaVuSans-30" transform="translate(63.623047 0)"/>
      </g>
     </g>
    </g>
    <g id="ytick_18">
     <g id="line2d_67">
      <path d="M 707.419062 153.337214 
L 993.734062 153.337214 
" clip-path="url(#p40a4c447f2)" style="fill: none; stroke: #b0b0b0; stroke-opacity: 0.3; stroke-width: 0.8; stroke-linecap: square"/>
     </g>
     <g id="line2d_68">
      <g>
       <use xlink:href="#m6ac30384d2" x="707.419062" y="153.337214" style="stroke: #000000; stroke-width: 0.8"/>
      </g>
     </g>
     <g id="text_42">
      <!-- 30 -->
      <g transform="translate(687.694062 157.136433) scale(0.1 -0.1)">
       <use xlink:href="#DejaVuSans-33"/>
       <use xlink:href="#DejaVuSans-30" transform="translate(63.623047 0)"/>
      </g>
     </g>
    </g>
    <g id="ytick_19">
     <g id="line2d_69">
      <path d="M 707.419062 123.941786 
L 993.734062 123.941786 
" clip-path="url(#p40a4c447f2)" style="fill: none; stroke: #b0b0b0; stroke-opacity: 0.3; stroke-width: 0.8; stroke-linecap: square"/>
     </g>
     <g id="line2d_70">
      <g>
       <use xlink:href="#m6ac30384d2" x="707.419062" y="123.941786" style="stroke: #000000; stroke-width: 0.8"/>
      </g>
     </g>
     <g id="text_43">
      <!-- 40 -->
      <g transform="translate(687.694062 127.741004) scale(0.1 -0.1)">
       <use xlink:href="#DejaVuSans-34"/>
       <use xlink:href="#DejaVuSans-30" transform="translate(63.623047 0)"/>
      </g>
     </g>
    </g>
    <g id="ytick_20">
     <g id="line2d_71">
      <path d="M 707.419062 94.546357 
L 993.734062 94.546357 
" clip-path="url(#p40a4c447f2)" style="fill: none; stroke: #b0b0b0; stroke-opacity: 0.3; stroke-width: 0.8; stroke-linecap: square"/>
     </g>
     <g id="line2d_72">
      <g>
       <use xlink:href="#m6ac30384d2" x="707.419062" y="94.546357" style="stroke: #000000; stroke-width: 0.8"/>
      </g>
     </g>
     <g id="text_44">
      <!-- 50 -->
      <g transform="translate(687.694062 98.345576) scale(0.1 -0.1)">
       <use xlink:href="#DejaVuSans-35"/>
       <use xlink:href="#DejaVuSans-30" transform="translate(63.623047 0)"/>
      </g>
     </g>
    </g>
    <g id="ytick_21">
     <g id="line2d_73">
      <path d="M 707.419062 65.150929 
L 993.734062 65.150929 
" clip-path="url(#p40a4c447f2)" style="fill: none; stroke: #b0b0b0; stroke-opacity: 0.3; stroke-width: 0.8; stroke-linecap: square"/>
     </g>
     <g id="line2d_74">
      <g>
       <use xlink:href="#m6ac30384d2" x="707.419062" y="65.150929" style="stroke: #000000; stroke-width: 0.8"/>
      </g>
     </g>
     <g id="text_45">
      <!-- 60 -->
      <g transform="translate(687.694062 68.950147) scale(0.1 -0.1)">
       <use xlink:href="#DejaVuSans-36"/>
       <use xlink:href="#DejaVuSans-30" transform="translate(63.623047 0)"/>
      </g>
     </g>
    </g>
    <g id="ytick_22">
     <g id="line2d_75">
      <path d="M 707.419062 35.7555 
L 993.734062 35.7555 
" clip-path="url(#p40a4c447f2)" style="fill: none; stroke: #b0b0b0; stroke-opacity: 0.3; stroke-width: 0.8; stroke-linecap: square"/>
     </g>
     <g id="line2d_76">
      <g>
       <use xlink:href="#m6ac30384d2" x="707.419062" y="35.7555" style="stroke: #000000; stroke-width: 0.8"/>
      </g>
     </g>
     <g id="text_46">
      <!-- 70 -->
      <g transform="translate(687.694062 39.554719) scale(0.1 -0.1)">
       <defs>
        <path id="DejaVuSans-37" d="M 525 4666 
L 3525 4666 
L 3525 4397 
L 1831 0 
L 1172 0 
L 2766 4134 
L 525 4134 
L 525 4666 
z
" transform="scale(0.015625)"/>
       </defs>
       <use xlink:href="#DejaVuSans-37"/>
       <use xlink:href="#DejaVuSans-30" transform="translate(63.623047 0)"/>
      </g>
     </g>
    </g>
    <g id="text_47">
     <!-- Control Actions (n=10 seeds) -->
     <g transform="translate(681.406406 219.227391) rotate(-90) scale(0.11 -0.11)">
      <defs>
       <path id="DejaVuSans-43" d="M 4122 4306 
L 4122 3641 
Q 3803 3938 3442 4084 
Q 3081 4231 2675 4231 
Q 1875 4231 1450 3742 
Q 1025 3253 1025 2328 
Q 1025 1406 1450 917 
Q 1875 428 2675 428 
Q 3081 428 3442 575 
Q 3803 722 4122 1019 
L 4122 359 
Q 3791 134 3420 21 
Q 3050 -91 2638 -91 
Q 1578 -91 968 557 
Q 359 1206 359 2328 
Q 359 3453 968 4101 
Q 1578 4750 2638 4750 
Q 3056 4750 3426 4639 
Q 3797 4528 4122 4306 
z
" transform="scale(0.015625)"/>
       <path id="DejaVuSans-6c" d="M 603 4863 
L 1178 4863 
L 1178 0 
L 603 0 
L 603 4863 
z
" transform="scale(0.015625)"/>
      </defs>
      <use xlink:href="#DejaVuSans-43"/>
      <use xlink:href="#DejaVuSans-6f" transform="translate(69.824219 0)"/>
      <use xlink:href="#DejaVuSans-6e" transform="translate(131.005859 0)"/>
      <use xlink:href="#DejaVuSans-74" transform="translate(194.384766 0)"/>
      <use xlink:href="#DejaVuSans-72" transform="translate(233.59375 0)"/>
      <use xlink:href="#DejaVuSans-6f" transform="translate(272.457031 0)"/>
      <use xlink:href="#DejaVuSans-6c" transform="translate(333.638672 0)"/>
      <use xlink:href="#DejaVuSans-20" transform="translate(361.421875 0)"/>
      <use xlink:href="#DejaVuSans-41" transform="translate(393.208984 0)"/>
      <use xlink:href="#DejaVuSans-63" transform="translate(459.867188 0)"/>
      <use xlink:href="#DejaVuSans-74" transform="translate(514.847656 0)"/>
      <use xlink:href="#DejaVuSans-69" transform="translate(554.056641 0)"/>
      <use xlink:href="#DejaVuSans-6f" transform="translate(581.839844 0)"/>
      <use xlink:href="#DejaVuSans-6e" transform="translate(643.021484 0)"/>
      <use xlink:href="#DejaVuSans-73" transform="translate(706.400391 0)"/>
      <use xlink:href="#DejaVuSans-20" transform="translate(758.5 0)"/>
      <use xlink:href="#DejaVuSans-28" transform="translate(790.287109 0)"/>
      <use xlink:href="#DejaVuSans-6e" transform="translate(829.300781 0)"/>
      <use xlink:href="#DejaVuSans-3d" transform="translate(892.679688 0)"/>
      <use xlink:href="#DejaVuSans-31" transform="translate(976.46875 0)"/>
      <use xlink:href="#DejaVuSans-30" transform="translate(1040.091797 0)"/>
      <use xlink:href="#DejaVuSans-20" transform="translate(1103.714844 0)"/>
      <use xlink:href="#DejaVuSans-73" transform="translate(1135.501953 0)"/>
      <use xlink:href="#DejaVuSans-65" transform="translate(1187.601562 0)"/>
      <use xlink:href="#DejaVuSans-65" transform="translate(1249.125 0)"/>
      <use xlink:href="#DejaVuSans-64" transform="translate(1310.648438 0)"/>
      <use xlink:href="#DejaVuSans-73" transform="translate(1374.125 0)"/>
      <use xlink:href="#DejaVuSans-29" transform="translate(1426.224609 0)"/>
     </g>
    </g>
   </g>
   <g id="patch_24">
    <path d="M 707.419062 241.5235 
L 707.419062 35.7555 
" style="fill: none; stroke: #000000; stroke-width: 0.8; stroke-linejoin: miter; stroke-linecap: square"/>
   </g>
   <g id="patch_25">
    <path d="M 993.734062 241.5235 
L 993.734062 35.7555 
" style="fill: none; stroke: #000000; stroke-width: 0.8; stroke-linejoin: miter; stroke-linecap: square"/>
   </g>
   <g id="patch_26">
    <path d="M 707.419062 241.5235 
L 993.734062 241.5235 
" style="fill: none; stroke: #000000; stroke-width: 0.8; stroke-linejoin: miter; stroke-linecap: square"/>
   </g>
   <g id="patch_27">
    <path d="M 707.419062 35.7555 
L 993.734062 35.7555 
" style="fill: none; stroke: #000000; stroke-width: 0.8; stroke-linejoin: miter; stroke-linecap: square"/>
   </g>
   <g id="text_48">
    <g id="patch_28">
     <path d="M 791.956328 157.908933 
L 909.196797 157.908933 
Q 911.896797 157.908933 911.896797 155.208933 
L 911.896797 126.342558 
Q 911.896797 123.642558 909.196797 123.642558 
L 791.956328 123.642558 
Q 789.256328 123.642558 789.256328 126.342558 
L 789.256328 155.208933 
Q 789.256328 157.908933 791.956328 157.908933 
z
" style="fill: #f5deb3; opacity: 0.5; stroke: #000000; stroke-linejoin: miter"/>
    </g>
    <!-- ESCAPE never triggers: -->
    <g transform="translate(798.278828 133.181152) scale(0.09 -0.09)">
     <defs>
      <path id="DejaVuSans-76" d="M 191 3500 
L 800 3500 
L 1894 563 
L 2988 3500 
L 3597 3500 
L 2284 0 
L 1503 0 
L 191 3500 
z
" transform="scale(0.015625)"/>
      <path id="DejaVuSans-3a" d="M 750 794 
L 1409 794 
L 1409 0 
L 750 0 
L 750 794 
z
M 750 3309 
L 1409 3309 
L 1409 2516 
L 750 2516 
L 750 3309 
z
" transform="scale(0.015625)"/>
     </defs>
     <use xlink:href="#DejaVuSans-45"/>
     <use xlink:href="#DejaVuSans-53" transform="translate(63.183594 0)"/>
     <use xlink:href="#DejaVuSans-43" transform="translate(126.660156 0)"/>
     <use xlink:href="#DejaVuSans-41" transform="translate(196.484375 0)"/>
     <use xlink:href="#DejaVuSans-50" transform="translate(264.892578 0)"/>
     <use xlink:href="#DejaVuSans-45" transform="translate(325.195312 0)"/>
     <use xlink:href="#DejaVuSans-20" transform="translate(388.378906 0)"/>
     <use xlink:href="#DejaVuSans-6e" transform="translate(420.166016 0)"/>
     <use xlink:href="#DejaVuSans-65" transform="translate(483.544922 0)"/>
     <use xlink:href="#DejaVuSans-76" transform="translate(545.068359 0)"/>
     <use xlink:href="#DejaVuSans-65" transform="translate(604.248047 0)"/>
     <use xlink:href="#DejaVuSans-72" transform="translate(665.771484 0)"/>
     <use xlink:href="#DejaVuSans-20" transform="translate(706.884766 0)"/>
     <use xlink:href="#DejaVuSans-74" transform="translate(738.671875 0)"/>
     <use xlink:href="#DejaVuSans-72" transform="translate(777.880859 0)"/>
     <use xlink:href="#DejaVuSans-69" transform="translate(818.994141 0)"/>
     <use xlink:href="#DejaVuSans-67" transform="translate(846.777344 0)"/>
     <use xlink:href="#DejaVuSans-67" transform="translate(910.253906 0)"/>
     <use xlink:href="#DejaVuSans-65" transform="translate(973.730469 0)"/>
     <use xlink:href="#DejaVuSans-72" transform="translate(1035.253906 0)"/>
     <use xlink:href="#DejaVuSans-73" transform="translate(1076.367188 0)"/>
     <use xlink:href="#DejaVuSans-3a" transform="translate(1128.466797 0)"/>
    </g>
    <!-- Attention diffuses entropy -->
    <g transform="translate(791.956328 143.259183) scale(0.09 -0.09)">
     <use xlink:href="#DejaVuSans-41"/>
     <use xlink:href="#DejaVuSans-74" transform="translate(66.658203 0)"/>
     <use xlink:href="#DejaVuSans-74" transform="translate(105.867188 0)"/>
     <use xlink:href="#DejaVuSans-65" transform="translate(145.076172 0)"/>
     <use xlink:href="#DejaVuSans-6e" transform="translate(206.599609 0)"/>
     <use xlink:href="#DejaVuSans-74" transform="translate(269.978516 0)"/>
     <use xlink:href="#DejaVuSans-69" transform="translate(309.1875 0)"/>
     <use xlink:href="#DejaVuSans-6f" transform="translate(336.970703 0)"/>
     <use xlink:href="#DejaVuSans-6e" transform="translate(398.152344 0)"/>
     <use xlink:href="#DejaVuSans-20" transform="translate(461.53125 0)"/>
     <use xlink:href="#DejaVuSans-64" transform="translate(493.318359 0)"/>
     <use xlink:href="#DejaVuSans-69" transform="translate(556.794922 0)"/>
     <use xlink:href="#DejaVuSans-66" transform="translate(584.578125 0)"/>
     <use xlink:href="#DejaVuSans-66" transform="translate(619.783203 0)"/>
     <use xlink:href="#DejaVuSans-75" transform="translate(654.988281 0)"/>
     <use xlink:href="#DejaVuSans-73" transform="translate(718.367188 0)"/>
     <use xlink:href="#DejaVuSans-65" transform="translate(770.466797 0)"/>
     <use xlink:href="#DejaVuSans-73" transform="translate(831.990234 0)"/>
     <use xlink:href="#DejaVuSans-20" transform="translate(884.089844 0)"/>
     <use xlink:href="#DejaVuSans-65" transform="translate(915.876953 0)"/>
     <use xlink:href="#DejaVuSans-6e" transform="translate(977.400391 0)"/>
     <use xlink:href="#DejaVuSans-74" transform="translate(1040.779297 0)"/>
     <use xlink:href="#DejaVuSans-72" transform="translate(1079.988281 0)"/>
     <use xlink:href="#DejaVuSans-6f" transform="translate(1118.851562 0)"/>
     <use xlink:href="#DejaVuSans-70" transform="translate(1180.033203 0)"/>
     <use xlink:href="#DejaVuSans-79" transform="translate(1243.509766 0)"/>
    </g>
    <!-- before control engages -->
    <g transform="translate(798.434219 153.337214) scale(0.09 -0.09)">
     <use xlink:href="#DejaVuSans-62"/>
     <use xlink:href="#DejaVuSans-65" transform="translate(63.476562 0)"/>
     <use xlink:href="#DejaVuSans-66" transform="translate(125 0)"/>
     <use xlink:href="#DejaVuSans-6f" transform="translate(160.205078 0)"/>
     <use xlink:href="#DejaVuSans-72" transform="translate(221.386719 0)"/>
     <use xlink:href="#DejaVuSans-65" transform="translate(260.25 0)"/>
     <use xlink:href="#DejaVuSans-20" transform="translate(321.773438 0)"/>
     <use xlink:href="#DejaVuSans-63" transform="translate(353.560547 0)"/>
     <use xlink:href="#DejaVuSans-6f" transform="translate(408.541016 0)"/>
     <use xlink:href="#DejaVuSans-6e" transform="translate(469.722656 0)"/>
     <use xlink:href="#DejaVuSans-74" transform="translate(533.101562 0)"/>
     <use xlink:href="#DejaVuSans-72" transform="translate(572.310547 0)"/>
     <use xlink:href="#DejaVuSans-6f" transform="translate(611.173828 0)"/>
     <use xlink:href="#DejaVuSans-6c" transform="translate(672.355469 0)"/>
     <use xlink:href="#DejaVuSans-20" transform="translate(700.138672 0)"/>
     <use xlink:href="#DejaVuSans-65" transform="translate(731.925781 0)"/>
     <use xlink:href="#DejaVuSans-6e" transform="translate(793.449219 0)"/>
     <use xlink:href="#DejaVuSans-67" transform="translate(856.828125 0)"/>
     <use xlink:href="#DejaVuSans-61" transform="translate(920.304688 0)"/>
     <use xlink:href="#DejaVuSans-67" transform="translate(981.583984 0)"/>
     <use xlink:href="#DejaVuSans-65" transform="translate(1045.060547 0)"/>
     <use xlink:href="#DejaVuSans-73" transform="translate(1106.583984 0)"/>
    </g>
   </g>
   <g id="text_49">
    <!-- C. Control Engagement -->
    <g transform="translate(780.709375 16.318125) scale(0.12 -0.12)">
     <use xlink:href="#DejaVuSans-43"/>
     <use xlink:href="#DejaVuSans-2e" transform="translate(69.824219 0)"/>
     <use xlink:href="#DejaVuSans-20" transform="translate(101.611328 0)"/>
     <use xlink:href="#DejaVuSans-43" transform="translate(133.398438 0)"/>
     <use xlink:href="#DejaVuSans-6f" transform="translate(203.222656 0)"/>
     <use xlink:href="#DejaVuSans-6e" transform="translate(264.404297 0)"/>
     <use xlink:href="#DejaVuSans-74" transform="translate(327.783203 0)"/>
     <use xlink:href="#DejaVuSans-72" transform="translate(366.992188 0)"/>
     <use xlink:href="#DejaVuSans-6f" transform="translate(405.855469 0)"/>
     <use xlink:href="#DejaVuSans-6c" transform="translate(467.037109 0)"/>
     <use xlink:href="#DejaVuSans-20" transform="translate(494.820312 0)"/>
     <use xlink:href="#DejaVuSans-45" transform="translate(526.607422 0)"/>
     <use xlink:href="#DejaVuSans-6e" transform="translate(589.791016 0)"/>
     <use xlink:href="#DejaVuSans-67" transform="translate(653.169922 0)"/>
     <use xlink:href="#DejaVuSans-61" transform="translate(716.646484 0)"/>
     <use xlink:href="#DejaVuSans-67" transform="translate(777.925781 0)"/>
     <use xlink:href="#DejaVuSans-65" transform="translate(841.402344 0)"/>
     <use xlink:href="#DejaVuSans-6d" transform="translate(902.925781 0)"/>
     <use xlink:href="#DejaVuSans-65" transform="translate(1000.337891 0)"/>
     <use xlink:href="#DejaVuSans-6e" transform="translate(1061.861328 0)"/>
     <use xlink:href="#DejaVuSans-74" transform="translate(1125.240234 0)"/>
    </g>
    <!-- (60 total steps per condition) -->
    <g transform="translate(763.099375 29.7555) scale(0.12 -0.12)">
     <use xlink:href="#DejaVuSans-28"/>
     <use xlink:href="#DejaVuSans-36" transform="translate(39.013672 0)"/>
     <use xlink:href="#DejaVuSans-30" transform="translate(102.636719 0)"/>
     <use xlink:href="#DejaVuSans-20" transform="translate(166.259766 0)"/>
     <use xlink:href="#DejaVuSans-74" transform="translate(198.046875 0)"/>
     <use xlink:href="#DejaVuSans-6f" transform="translate(237.255859 0)"/>
     <use xlink:href="#DejaVuSans-74" transform="translate(298.4375 0)"/>
     <use xlink:href="#DejaVuSans-61" transform="translate(337.646484 0)"/>
     <use xlink:href="#DejaVuSans-6c" transform="translate(398.925781 0)"/>
     <use xlink:href="#DejaVuSans-20" transform="translate(426.708984 0)"/>
     <use xlink:href="#DejaVuSans-73" transform="translate(458.496094 0)"/>
     <use xlink:href="#DejaVuSans-74" transform="translate(510.595703 0)"/>
     <use xlink:href="#DejaVuSans-65" transform="translate(549.804688 0)"/>
     <use xlink:href="#DejaVuSans-70" transform="translate(611.328125 0)"/>
     <use xlink:href="#DejaVuSans-73" transform="translate(674.804688 0)"/>
     <use xlink:href="#DejaVuSans-20" transform="translate(726.904297 0)"/>
     <use xlink:href="#DejaVuSans-70" transform="translate(758.691406 0)"/>
     <use xlink:href="#DejaVuSans-65" transform="translate(822.167969 0)"/>
     <use xlink:href="#DejaVuSans-72" transform="translate(883.691406 0)"/>
     <use xlink:href="#DejaVuSans-20" transform="translate(924.804688 0)"/>
     <use xlink:href="#DejaVuSans-63" transform="translate(956.591797 0)"/>
     <use xlink:href="#DejaVuSans-6f" transform="translate(1011.572266 0)"/>
     <use xlink:href="#DejaVuSans-6e" transform="translate(1072.753906 0)"/>
     <use xlink:href="#DejaVuSans-64" transform="translate(1136.132812 0)"/>
     <use xlink:href="#DejaVuSans-69" transform="translate(1199.609375 0)"/>
     <use xlink:href="#DejaVuSans-74" transform="translate(1227.392578 0)"/>
     <use xlink:href="#DejaVuSans-69" transform="translate(1266.601562 0)"/>
     <use xlink:href="#DejaVuSans-6f" transform="translate(1294.384766 0)"/>
     <use xlink:href="#DejaVuSans-6e" transform="translate(1355.566406 0)"/>
     <use xlink:href="#DejaVuSans-29" transform="translate(1418.945312 0)"/>
    </g>
   </g>
   <g id="legend_3">
    <g id="patch_29">
     <path d="M 923.678906 69.376125 
L 987.434063 69.376125 
Q 989.234063 69.376125 989.234063 67.576125 
L 989.234063 42.0555 
Q 989.234063 40.2555 987.434063 40.2555 
L 923.678906 40.2555 
Q 921.878906 40.2555 921.878906 42.0555 
L 921.878906 67.576125 
Q 921.878906 69.376125 923.678906 69.376125 
z
" style="fill: #ffffff; opacity: 0.8; stroke: #cccccc; stroke-linejoin: miter"/>
    </g>
    <g id="patch_30">
     <path d="M 925.478906 50.694094 
L 943.478906 50.694094 
L 943.478906 44.394094 
L 925.478906 44.394094 
z
" style="fill: #9b59b6; stroke: #000000; stroke-linejoin: miter"/>
    </g>
    <g id="text_50">
     <!-- BRAKE -->
     <g transform="translate(950.678906 50.694094) scale(0.09 -0.09)">
      <use xlink:href="#DejaVuSans-42"/>
      <use xlink:href="#DejaVuSans-52" transform="translate(68.603516 0)"/>
      <use xlink:href="#DejaVuSans-41" transform="translate(134.085938 0)"/>
      <use xlink:href="#DejaVuSans-4b" transform="translate(202.494141 0)"/>
      <use xlink:href="#DejaVuSans-45" transform="translate(268.070312 0)"/>
     </g>
    </g>
    <g id="patch_31">
     <path d="M 925.478906 63.904406 
L 943.478906 63.904406 
L 943.478906 57.604406 
L 925.478906 57.604406 
z
" style="fill: #f39c12; stroke: #000000; stroke-linejoin: miter"/>
    </g>
    <g id="text_51">
     <!-- ESCAPE -->
     <g transform="translate(950.678906 63.904406) scale(0.09 -0.09)">
      <use xlink:href="#DejaVuSans-45"/>
      <use xlink:href="#DejaVuSans-53" transform="translate(63.183594 0)"/>
      <use xlink:href="#DejaVuSans-43" transform="translate(126.660156 0)"/>
      <use xlink:href="#DejaVuSans-41" transform="translate(196.484375 0)"/>
      <use xlink:href="#DejaVuSans-50" transform="translate(264.892578 0)"/>
      <use xlink:href="#DejaVuSans-45" transform="translate(325.195312 0)"/>
     </g>
    </g>
   </g>
  </g>
 </g>
 <defs>
  <clipPath id="p124af57cd9">
   <rect x="44.749063" y="35.7555" width="286.315" height="205.768"/>
  </clipPath>
  <clipPath id="pb3846dc722">
   <rect x="376.084063" y="35.7555" width="286.315" height="205.768"/>
  </clipPath>
  <clipPath id="p40a4c447f2">
   <rect x="707.419062" y="35.7555" width="286.315" height="205.768"/>
  </clipPath>
 </defs>
</svg>
